<svg xmlns="http://www.w3.org/2000/svg" xmlns:xlink="http://www.w3.org/1999/xlink" width="236" height="177" viewBox="0 0 236 177">
  <defs>
    <clipPath id="clip-path">
      <rect id="Rectangle_4921" data-name="Rectangle 4921" width="153.332" height="149.002" fill="none"/>
    </clipPath>
    <clipPath id="clip-path-3">
      <rect id="Rectangle_4913" data-name="Rectangle 4913" width="5.948" height="9.194" fill="none"/>
    </clipPath>
    <clipPath id="clip-path-4">
      <rect id="Rectangle_4915" data-name="Rectangle 4915" width="1.179" height="1.198" fill="none"/>
    </clipPath>
    <clipPath id="clip-path-5">
      <rect id="Rectangle_4916" data-name="Rectangle 4916" width="14.467" height="7.381" fill="none"/>
    </clipPath>
    <clipPath id="clip-path-6">
      <rect id="Rectangle_4917" data-name="Rectangle 4917" width="1.212" height="1.211" fill="none"/>
    </clipPath>
    <clipPath id="clip-path-7">
      <rect id="Rectangle_4918" data-name="Rectangle 4918" width="15.582" height="1.352" fill="none"/>
    </clipPath>
    <clipPath id="clip-path-8">
      <rect id="Rectangle_4919" data-name="Rectangle 4919" width="4.855" height="4.307" fill="none"/>
    </clipPath>
  </defs>
  <g id="Group_12017" data-name="Group 12017" transform="translate(-902 -601)">
    <g id="Group_11934" data-name="Group 11934" transform="translate(943.334 614.754)">
      <g id="Group_11933" data-name="Group 11933" clip-path="url(#clip-path)">
        <g id="Group_11932" data-name="Group 11932">
          <g id="Group_11931" data-name="Group 11931" clip-path="url(#clip-path)">
            <path id="Path_9379" data-name="Path 9379" d="M330.6,321.827a13.668,13.668,0,0,0-5.849-2.013,3.9,3.9,0,0,0-2.767.509.568.568,0,0,0-.285.505.617.617,0,0,0,.27.346,8.363,8.363,0,0,0,8.63.654" transform="translate(-213.872 -212.59)" fill="#e0e0e0"/>
            <path id="Path_9380" data-name="Path 9380" d="M335.491,307.225a28.558,28.558,0,0,1-3.778-3.324,9.558,9.558,0,0,1-2.368-4.38,1.766,1.766,0,0,1,.187-1.466c3.011,2.352,5.377,5.393,5.959,9.169" transform="translate(-218.909 -198.154)" fill="#e0e0e0"/>
            <path id="Path_9381" data-name="Path 9381" d="M347.794,307.884a13.656,13.656,0,0,1,.07-4.96,6.7,6.7,0,0,1,2.642-4.093,5.855,5.855,0,0,1-.07,3.888,18.894,18.894,0,0,1-2.619,5.515" transform="translate(-231.093 -198.669)" fill="#e0e0e0"/>
            <path id="Path_9382" data-name="Path 9382" d="M342.357,341.619a8.643,8.643,0,0,0-4.69,2.374,8.871,8.871,0,0,0-2.683,4.606,6.327,6.327,0,0,0,4.33-2.738c1.082-1.39,1.831-2.915,3.019-4.215" transform="translate(-222.704 -227.115)" fill="#e0e0e0"/>
            <path id="Path_9383" data-name="Path 9383" d="M357.3,322.438a11.569,11.569,0,0,1,1.336-10.943,13.93,13.93,0,0,1-1.336,10.943" transform="translate(-237.001 -207.088)" fill="#e0e0e0"/>
            <path id="Path_9384" data-name="Path 9384" d="M354.426,357.968a8.366,8.366,0,0,0-8,4.6c-.1.2-.187.45-.054.627a.6.6,0,0,0,.531.156,6.96,6.96,0,0,0,4.126-2.131,39.544,39.544,0,0,1,3.431-3.262" transform="translate(-230.231 -237.974)" fill="#e0e0e0"/>
            <path id="Path_9385" data-name="Path 9385" d="M368.831,335.262a14.9,14.9,0,0,1-.149-8.322,4.057,4.057,0,0,1,1.776-2.7.349.349,0,0,1,.272-.048.359.359,0,0,1,.172.2,5.016,5.016,0,0,1,.419,2.388,14.969,14.969,0,0,1-.374,2.417,12.853,12.853,0,0,1-1.288,4.339,8.817,8.817,0,0,0-.515.953c-.154.324-.155.438-.295.7" transform="translate(-244.761 -215.521)" fill="#e0e0e0"/>
            <path id="Path_9386" data-name="Path 9386" d="M400.394,343.651a10.73,10.73,0,0,1,1.88-8.822c.135-.176.314-.364.535-.343.338.031.425.481.41.82a15.942,15.942,0,0,1-2.825,8.346" transform="translate(-266 -222.372)" fill="#e0e0e0"/>
            <path id="Path_9387" data-name="Path 9387" d="M403.74,357.682a12.833,12.833,0,0,0,10.53-2.142,8.527,8.527,0,0,0-5.7-.7,8.134,8.134,0,0,0-4.83,2.841" transform="translate(-268.415 -235.767)" fill="#e0e0e0"/>
            <path id="Path_9388" data-name="Path 9388" d="M406.082,346.991a12.17,12.17,0,0,1,9.557-5.526,5.888,5.888,0,0,1-3.126,3.456,17.346,17.346,0,0,1-4.588,1.341,3.235,3.235,0,0,0-1.843.729" transform="translate(-269.972 -227.013)" fill="#e0e0e0"/>
            <path id="Path_9389" data-name="Path 9389" d="M398.827,307.823a27.771,27.771,0,0,0,1.222-5.6,9.321,9.321,0,0,0-1.115-5.536,12.187,12.187,0,0,0-.163,11.325" transform="translate(-264.235 -197.246)" fill="#e0e0e0"/>
            <path id="Path_9390" data-name="Path 9390" d="M420.125,305.622a15,15,0,0,1,11.039-7.51,12.3,12.3,0,0,1-11.039,7.51" transform="translate(-279.308 -198.191)" fill="#e0e0e0"/>
            <path id="Path_9391" data-name="Path 9391" d="M416.066,321.536c3.225.491,5.973,2.551,8.987,3.8a4.025,4.025,0,0,0,2.032.389,1.591,1.591,0,0,0,1-2.814,4.347,4.347,0,0,0-1.476-.9,16.4,16.4,0,0,0-10.262-.572" transform="translate(-276.609 -213.335)" fill="#e0e0e0"/>
            <path id="Path_9392" data-name="Path 9392" d="M410.5,329.255a3.81,3.81,0,0,1,1.558,1.08,16.81,16.81,0,0,0,6.815,3.5c.26.065.6.091.731-.145.113-.205-.03-.454-.176-.637a9.377,9.377,0,0,0-4.115-2.793c-1.573-.586-2.936-1.292-4.813-1.14" transform="translate(-272.908 -218.792)" fill="#e0e0e0"/>
            <path id="Path_9393" data-name="Path 9393" d="M404.214,288.111a12.9,12.9,0,0,0,9.888,3.364.677.677,0,0,0,.45-.162c.249-.271-.05-.689-.34-.915a11.392,11.392,0,0,0-10-2.288" transform="translate(-268.73 -191.31)" fill="#e0e0e0"/>
            <path id="Path_9394" data-name="Path 9394" d="M411.664,280.75A13.781,13.781,0,0,1,424,278.714a9.8,9.8,0,0,1-5.88,2.581,18.61,18.61,0,0,1-6.459-.545" transform="translate(-273.683 -184.863)" fill="#e0e0e0"/>
            <path id="Path_9395" data-name="Path 9395" d="M405.4,250.036c-.286-2.9-.1-5.192-.3-8.108-.016-.233-.066-.513-.284-.6-.3-.117-.556.256-.656.565a9.293,9.293,0,0,0,1.237,8.075" transform="translate(-268.408 -160.427)" fill="#e0e0e0"/>
            <path id="Path_9396" data-name="Path 9396" d="M408.08,250.208a17.064,17.064,0,0,0,4.807-4.672,6.388,6.388,0,0,0,1.534-4.45,4.6,4.6,0,0,0-3.467,1.722,9.68,9.68,0,0,0-1.768,3.556c-.385,1.277-.654,2.589-1.106,3.844" transform="translate(-271.3 -160.279)" fill="#e0e0e0"/>
            <path id="Path_9397" data-name="Path 9397" d="M422.048,249.972A38.752,38.752,0,0,0,433.877,243a6.04,6.04,0,0,0-4.443.342,14.012,14.012,0,0,0-7.447,6.6" transform="translate(-280.545 -161.355)" fill="#e0e0e0"/>
            <path id="Path_9398" data-name="Path 9398" d="M412.042,266.252a24.062,24.062,0,0,0,6.569.032,27.893,27.893,0,0,0,6.132-2.038.72.72,0,0,0,.416-.316.479.479,0,0,0-.149-.525,1.271,1.271,0,0,0-.523-.245,11.354,11.354,0,0,0-6.627.4,30.749,30.749,0,0,0-5.818,2.7" transform="translate(-273.934 -174.735)" fill="#e0e0e0"/>
            <path id="Path_9399" data-name="Path 9399" d="M372.67,270.025a11.619,11.619,0,0,1-.106-9.616,7.344,7.344,0,0,1,.851,4.781c-.166,1.643-.666,3.334-.7,4.984" transform="translate(-247.031 -173.125)" fill="#e0e0e0"/>
            <path id="Path_9400" data-name="Path 9400" d="M337.316,280.138a13.411,13.411,0,0,0-9.966,4.246,9.313,9.313,0,0,0,5.457-1.012,27.736,27.736,0,0,0,4.677-3.13" transform="translate(-217.629 -186.24)" fill="#e0e0e0"/>
            <path id="Path_9401" data-name="Path 9401" d="M326.55,275.8a13.909,13.909,0,0,0-5.32.163,6.382,6.382,0,0,0-4.055,3.438,9.611,9.611,0,0,0,4.988-.942,28.7,28.7,0,0,0,4.387-2.66" transform="translate(-210.864 -183.243)" fill="#e0e0e0"/>
            <path id="Path_9402" data-name="Path 9402" d="M341.662,270.792a16.781,16.781,0,0,0-5.224-2.609,5.693,5.693,0,0,0-5.444,1.321,10.172,10.172,0,0,0,5.2,1.011,17.983,17.983,0,0,1,5.669.575" transform="translate(-220.052 -178.171)" fill="#e0e0e0"/>
            <path id="Path_9403" data-name="Path 9403" d="M356.551,253.9a12.145,12.145,0,0,1-2.734-11.442,17.432,17.432,0,0,1,2.734,11.442" transform="translate(-234.93 -161.188)" fill="#e0e0e0"/>
            <path id="Path_9404" data-name="Path 9404" d="M385.81,235.449c.528-1.227.9-2.515,1.373-3.764a10.819,10.819,0,0,1,1.957-3.47,5.154,5.154,0,0,1,3.466-1.8,13.959,13.959,0,0,1-6.727,9.05" transform="translate(-256.494 -150.528)" fill="#e0e0e0"/>
            <path id="Path_9405" data-name="Path 9405" d="M367.3,248.419a18.01,18.01,0,0,0-3.067-3.732,5.132,5.132,0,0,0-4.173-1.1,9.719,9.719,0,0,0,7.239,4.827" transform="translate(-239.373 -161.875)" fill="#e0e0e0"/>
            <path id="Path_9406" data-name="Path 9406" d="M379.549,235.773a20.759,20.759,0,0,1-1.381-4.471,6.974,6.974,0,0,1,.7-4.546,10.315,10.315,0,0,1,.759,9.05" transform="translate(-251.347 -150.752)" fill="#e0e0e0"/>
            <path id="Path_9407" data-name="Path 9407" d="M385.852,214.548c.87-2.879,3.506-5,6.352-5.971a2.375,2.375,0,0,1,1.114-.167.967.967,0,0,1,.821.685c.1.49-.3.929-.681,1.254a21.616,21.616,0,0,1-7.605,4.2" transform="translate(-256.522 -138.544)" fill="#e0e0e0"/>
            <path id="Path_9408" data-name="Path 9408" d="M385.856,200.54a20.621,20.621,0,0,1,.83-5.5,6.949,6.949,0,0,1,3.46-4.178,8.147,8.147,0,0,1-1.536,5.353,24.568,24.568,0,0,0-2.8,4.936" transform="translate(-256.494 -126.89)" fill="#e0e0e0"/>
            <path id="Path_9409" data-name="Path 9409" d="M375.1,203.527c-.719-2.1-.794-4.763-2.05-6.591-.878-1.278-2.285-2.148-3.041-3.5a5.325,5.325,0,0,0,.177,3.975,11.5,11.5,0,0,0,2.324,3.327c.929.993,1.725,1.74,2.59,2.79" transform="translate(-245.787 -128.6)" fill="#e0e0e0"/>
            <path id="Path_9410" data-name="Path 9410" d="M385.637,283.879c-.056,0-.1-14-.108-31.256s.038-31.259.094-31.259.1,13.993.108,31.259-.038,31.256-.094,31.256" transform="translate(-256.307 -147.167)" fill="#e0e0e0"/>
            <path id="Path_9411" data-name="Path 9411" d="M398.047,282.793a2.976,2.976,0,0,1-.526.2l-1.448.489c-1.221.416-2.9,1.018-4.719,1.764a19.122,19.122,0,0,0-4.471,2.24,3.285,3.285,0,0,0-.9,1.189c-.139.328-.164.53-.182.526a.41.41,0,0,1,.006-.147,2.216,2.216,0,0,1,.1-.408,3.158,3.158,0,0,1,.876-1.267,7.857,7.857,0,0,1,1.94-1.2c.776-.362,1.636-.74,2.549-1.115,1.826-.748,3.517-1.331,4.752-1.713.617-.192,1.121-.334,1.47-.428a3.007,3.007,0,0,1,.549-.122" transform="translate(-256.487 -188.005)" fill="#e0e0e0"/>
            <path id="Path_9412" data-name="Path 9412" d="M403.966,253.418a.855.855,0,0,1-.147.158l-.449.422-1.677,1.523-5.58,4.969c-2.178,1.939-4.061,3.792-5.365,5.187-.653.7-1.168,1.274-1.519,1.677l-.406.463a.836.836,0,0,1-.152.154.9.9,0,0,1,.12-.179c.085-.113.208-.28.377-.488.333-.419.832-1.012,1.474-1.723a70.777,70.777,0,0,1,5.336-5.241c2.186-1.935,4.175-3.672,5.621-4.925l1.719-1.475.474-.394a.854.854,0,0,1,.174-.127" transform="translate(-258.396 -168.477)" fill="#e0e0e0"/>
            <path id="Path_9413" data-name="Path 9413" d="M403.846,270.786c-.057-.026.4-1.076.851-2.4s.673-2.45.731-2.44a8.215,8.215,0,0,1-.539,2.505,16.367,16.367,0,0,1-.678,1.682,2.608,2.608,0,0,1-.365.658" transform="translate(-268.482 -176.803)" fill="#e0e0e0"/>
            <path id="Path_9414" data-name="Path 9414" d="M369.8,285.4a2.5,2.5,0,0,1-.336-.39l-.86-1.1c-.722-.934-1.721-2.223-2.84-3.633s-2.149-2.676-2.894-3.591l-.879-1.088a2.524,2.524,0,0,1-.3-.415,2.494,2.494,0,0,1,.363.364c.224.243.542.6.928,1.047.774.893,1.822,2.145,2.943,3.558s2.1,2.716,2.8,3.673c.347.478.623.868.809,1.142a2.489,2.489,0,0,1,.272.436" transform="translate(-240.457 -182.946)" fill="#e0e0e0"/>
            <path id="Path_9415" data-name="Path 9415" d="M375.129,287.007a4.927,4.927,0,0,1-1.124-2.1,6,6,0,0,1-.255-2.121l.09.007c-.04.162-.069.248-.085.245s-.017-.093,0-.259l.089.007a9.659,9.659,0,0,0,.359,2.063,15.712,15.712,0,0,0,.93,2.161" transform="translate(-248.468 -187.995)" fill="#e0e0e0"/>
            <path id="Path_9416" data-name="Path 9416" d="M355.544,280.7a3.618,3.618,0,0,0-.784-.455,5.246,5.246,0,0,0-2.178-.173,13.458,13.458,0,0,0-2.193.354,6.639,6.639,0,0,1-.9.217,3.142,3.142,0,0,1,.864-.354,10,10,0,0,1,2.216-.418,4.756,4.756,0,0,1,2.247.242,1.391,1.391,0,0,1,.731.588" transform="translate(-232.346 -186.044)" fill="#e0e0e0"/>
            <path id="Path_9417" data-name="Path 9417" d="M348.229,276.706c-.015.031-.457-.183-1.2-.438a12.1,12.1,0,0,0-6.056-.462c-.775.139-1.244.284-1.254.25a1.131,1.131,0,0,1,.319-.136,7.44,7.44,0,0,1,.907-.255,10.689,10.689,0,0,1,6.133.468,7.5,7.5,0,0,1,.858.389,1.142,1.142,0,0,1,.294.183" transform="translate(-225.851 -183.104)" fill="#e0e0e0"/>
            <path id="Path_9418" data-name="Path 9418" d="M382.71,253.765a49.57,49.57,0,0,1-1.557-6.138,49.625,49.625,0,0,1,1.557,6.138" transform="translate(-253.394 -164.627)" fill="#e0e0e0"/>
            <path id="Path_9419" data-name="Path 9419" d="M381.213,259.393a14.652,14.652,0,0,0-.971-1.823,8.045,8.045,0,0,0-1.43-1.475,1.339,1.339,0,0,1,.552.285,4.449,4.449,0,0,1,1.043,1.075,4.041,4.041,0,0,1,.806,1.939" transform="translate(-251.842 -170.255)" fill="#e0e0e0"/>
            <path id="Path_9420" data-name="Path 9420" d="M360.42,345.1c-.022,0-.063-.337-.221-.931a13.257,13.257,0,0,0-.935-2.423,33.536,33.536,0,0,0-4.962-6.991c-1.108-1.266-2.183-2.46-3.095-3.6a25.3,25.3,0,0,1-2.213-3.192,15.318,15.318,0,0,1-1.117-2.369c-.1-.292-.178-.52-.22-.678a1.143,1.143,0,0,1-.058-.242c.018-.006.12.32.351.891a17.346,17.346,0,0,0,1.167,2.325,26.777,26.777,0,0,0,2.235,3.147c.916,1.131,1.992,2.319,3.1,3.587a31.8,31.8,0,0,1,4.939,7.062,12.089,12.089,0,0,1,.883,2.467,6.771,6.771,0,0,1,.124.7,1.138,1.138,0,0,1,.02.248" transform="translate(-231.09 -215.848)" fill="#e0e0e0"/>
            <path id="Path_9421" data-name="Path 9421" d="M396.9,348.372a5.109,5.109,0,0,1-.579.325,12.693,12.693,0,0,0-1.5.993,17.289,17.289,0,0,0-1.973,1.8c-.692.732-1.406,1.581-2.134,2.492-1.456,1.826-2.817,3.443-3.632,4.733-.414.64-.715,1.179-.912,1.558a5.093,5.093,0,0,1-.319.583.554.554,0,0,1,.054-.164c.043-.1.1-.261.194-.454a14.753,14.753,0,0,1,.862-1.6,52.1,52.1,0,0,1,3.6-4.783c.73-.912,1.452-1.763,2.157-2.494a16.014,16.014,0,0,1,2.022-1.785,10.548,10.548,0,0,1,1.552-.949c.192-.1.349-.156.452-.2a.554.554,0,0,1,.164-.055" transform="translate(-256.521 -231.604)" fill="#e0e0e0"/>
            <path id="Path_9422" data-name="Path 9422" d="M404.32,360.427a8.421,8.421,0,0,1-1.224.178,16.137,16.137,0,0,0-2.9.572,8.723,8.723,0,0,0-2.6,1.364c-.6.463-.882.846-.91.824a.938.938,0,0,1,.181-.282,4.635,4.635,0,0,1,.638-.653,7.879,7.879,0,0,1,2.628-1.446,13.124,13.124,0,0,1,2.952-.522,6.773,6.773,0,0,1,1.238-.036" transform="translate(-263.722 -239.609)" fill="#e0e0e0"/>
            <path id="Path_9423" data-name="Path 9423" d="M397.741,359.667c-.064-.036.488-.879.916-2.012.4-1.144.5-2.147.568-2.135a1.935,1.935,0,0,1-.02.657,7.044,7.044,0,0,1-.357,1.548,7.465,7.465,0,0,1-.71,1.419,1.97,1.97,0,0,1-.4.524" transform="translate(-264.423 -236.356)" fill="#e0e0e0"/>
            <path id="Path_9424" data-name="Path 9424" d="M400.491,315.935a.941.941,0,0,1-.2.1l-.575.261c-.252.108-.558.245-.9.427s-.749.362-1.17.615l-.668.38c-.231.133-.461.291-.7.444-.492.3-.986.666-1.512,1.042a25.962,25.962,0,0,0-5.823,6.026c-.357.539-.708,1.045-.99,1.547-.145.249-.295.483-.42.719l-.357.68c-.238.429-.408.838-.574,1.19s-.3.661-.4.916l-.242.584a.111.111,0,1,1-.039-.014l.207-.6c.088-.261.2-.577.365-.933s.319-.774.55-1.209l.347-.69c.122-.24.27-.477.412-.73.277-.509.625-1.022.981-1.568a24.99,24.99,0,0,1,5.866-6.07c.534-.374,1.034-.739,1.533-1.034.247-.15.48-.306.715-.437l.679-.371c.427-.246.837-.422,1.19-.591s.663-.3.92-.4l.591-.227a.882.882,0,0,1,.211-.066" transform="translate(-256.529 -210.039)" fill="#e0e0e0"/>
            <path id="Path_9425" data-name="Path 9425" d="M403.4,330.524a1.407,1.407,0,0,1,.481-.716,3.035,3.035,0,0,1,1.938-.743,5.3,5.3,0,0,1,2.039.4,2.914,2.914,0,0,1,.771.375,4.743,4.743,0,0,1-.818-.24,6.162,6.162,0,0,0-1.986-.331,3.158,3.158,0,0,0-1.851.65,5.706,5.706,0,0,0-.574.608" transform="translate(-268.19 -218.768)" fill="#e0e0e0"/>
            <path id="Path_9426" data-name="Path 9426" d="M399.5,330.188a5.176,5.176,0,0,0,.427-3.659,1.19,1.19,0,0,1,.227.522,3.7,3.7,0,0,1-.313,2.682c-.171.309-.322.469-.341.455" transform="translate(-265.593 -217.083)" fill="#e0e0e0"/>
            <path id="Path_9427" data-name="Path 9427" d="M357.013,391.6a46.316,46.316,0,0,0,4.393,16.288h10.781a46.842,46.842,0,0,0,4.131-16.288Z" transform="translate(-237.35 -260.344)" fill="#e0e0e0"/>
            <path id="Path_9428" data-name="Path 9428" d="M377.947,417.222c0,.056-3.55.1-7.927.1s-7.928-.045-7.928-.1,3.549-.1,7.928-.1,7.927.045,7.927.1" transform="translate(-240.726 -277.311)" fill="#fafafa"/>
            <path id="Path_9429" data-name="Path 9429" d="M379.195,423c0,.056-3.328.1-7.432.1s-7.432-.045-7.432-.1,3.327-.1,7.432-.1,7.432.045,7.432.1" transform="translate(-242.215 -281.153)" fill="#fafafa"/>
            <path id="Path_9430" data-name="Path 9430" d="M370.436,402.078a30.507,30.507,0,0,1,0,4.966,30.489,30.489,0,0,1,0-4.966" transform="translate(-246.206 -267.31)" fill="#fafafa"/>
            <path id="Path_9431" data-name="Path 9431" d="M387.669,402.078a32.722,32.722,0,0,1,0,5.143,32.7,32.7,0,0,1,0-5.143" transform="translate(-257.663 -267.31)" fill="#fafafa"/>
            <path id="Path_9432" data-name="Path 9432" d="M403.847,401.948a34.029,34.029,0,0,1,0,5.246,34.019,34.019,0,0,1,0-5.246" transform="translate(-268.419 -267.223)" fill="#fafafa"/>
            <path id="Path_9433" data-name="Path 9433" d="M376.7,401.877c0,.056-4.163.1-9.3.1s-9.3-.045-9.3-.1,4.162-.1,9.3-.1,9.3.045,9.3.1" transform="translate(-238.076 -267.109)" fill="#fafafa"/>
            <rect id="Rectangle_4905" data-name="Rectangle 4905" width="25.83" height="26.926" transform="translate(118.66 0.008)" fill="#e0e0e0"/>
            <rect id="Rectangle_4906" data-name="Rectangle 4906" width="25.83" height="26.926" transform="translate(116.911 0.008)" fill="#fafafa"/>
            <path id="Path_9434" data-name="Path 9434" d="M374.622,26.942H348.776V0h25.846Zm-25.83-.016h25.814V.016H348.792Z" transform="translate(-231.874)" fill="#e0e0e0"/>
            <rect id="Rectangle_4907" data-name="Rectangle 4907" width="18.886" height="19.687" transform="translate(120.383 3.628)" fill="#fff"/>
            <path id="Path_9435" data-name="Path 9435" d="M352.323,69.946a3.087,3.087,0,0,1-.466.542c-.3.318-.726.749-1.2,1.217s-.912.885-1.234,1.181a3.017,3.017,0,0,1-.546.455,3,3,0,0,1,.464-.54c.3-.318.726-.75,1.2-1.219s.914-.887,1.236-1.183a2.945,2.945,0,0,1,.543-.452" transform="translate(-231.94 -46.5)" fill="#e0e0e0"/>
            <path id="Path_9436" data-name="Path 9436" d="M415.5,69.8a3.1,3.1,0,0,1,.542.466c.318.3.749.726,1.217,1.2s.885.912,1.181,1.234a3.048,3.048,0,0,1,.455.546,2.993,2.993,0,0,1-.54-.463c-.318-.3-.75-.727-1.22-1.2s-.887-.914-1.183-1.236a2.96,2.96,0,0,1-.453-.543" transform="translate(-276.234 -46.405)" fill="#e0e0e0"/>
            <path id="Path_9437" data-name="Path 9437" d="M415.349,4.245a3.1,3.1,0,0,1,.466-.542c.3-.318.725-.749,1.2-1.217s.912-.885,1.234-1.181A3,3,0,0,1,418.8.851a3.03,3.03,0,0,1-.464.539c-.3.318-.727.75-1.2,1.22s-.914.887-1.236,1.183a2.959,2.959,0,0,1-.543.452" transform="translate(-276.132 -0.565)" fill="#e0e0e0"/>
            <path id="Path_9438" data-name="Path 9438" d="M352.27,4.287a3.1,3.1,0,0,1-.542-.466c-.318-.3-.749-.726-1.217-1.2s-.885-.912-1.181-1.234a3.016,3.016,0,0,1-.455-.546,2.978,2.978,0,0,1,.539.463c.318.3.75.727,1.22,1.2s.887.914,1.183,1.236a2.937,2.937,0,0,1,.453.543" transform="translate(-231.939 -0.558)" fill="#e0e0e0"/>
            <path id="Path_9439" data-name="Path 9439" d="M377.828,30.344a.932.932,0,0,1,0-.1c0-.067,0-.158,0-.275,0-.247,0-.6-.008-1.063,0-.932-.011-2.289-.019-4.012-.009-3.448-.022-8.36-.037-14.241l.073.073L359,10.741h0l.084-.084c0,7.226-.008,13.986-.012,19.687l-.072-.072,13.637.037,3.83.019,1.014.008.262,0a.841.841,0,0,1,.091,0,.6.6,0,0,1-.083,0l-.254,0-1,.008-3.814.019-13.683.037h-.072v-.072c0-5.7-.007-12.461-.012-19.687v-.083H359l18.832.011h.073v.073c-.015,5.9-.028,10.829-.037,14.288-.008,1.716-.015,3.067-.019,4,0,.455-.006.805-.008,1.049,0,.114,0,.2,0,.267a.678.678,0,0,1,0,.087" transform="translate(-238.611 -7.03)" fill="#e0e0e0"/>
            <rect id="Rectangle_4908" data-name="Rectangle 4908" width="6.302" height="6.302" transform="translate(126.675 10.32)" fill="#ebebeb"/>
            <rect id="Rectangle_4909" data-name="Rectangle 4909" width="29.496" height="42.754" transform="translate(2.444 42.548)" fill="#e0e0e0"/>
            <rect id="Rectangle_4910" data-name="Rectangle 4910" width="29.496" height="42.754" transform="translate(0.967 42.548)" fill="#f5f5f5"/>
            <rect id="Rectangle_4911" data-name="Rectangle 4911" width="22.167" height="33.493" transform="translate(4.632 47.179)" fill="#fff"/>
            <path id="Path_9440" data-name="Path 9440" d="M35.826,174.09s0-.057,0-.164,0-.268,0-.475c0-.421-.005-1.037-.009-1.837,0-1.605-.011-3.944-.02-6.9-.009-5.906-.021-14.269-.036-24.118l.074.074-22.164.006h0l.08-.08c-.006,12.635-.012,24.284-.016,33.493l-.064-.064,16.135.034,4.458.016,1.17.007c.265,0,.4.007.4.007s-.13,0-.391.007l-1.158.007-4.443.016-16.174.034H13.6v-.064c0-9.208-.01-20.858-.016-33.493v-.08h.083l22.164.007H35.9v.073c-.015,9.868-.027,18.248-.036,24.166-.008,2.948-.015,5.281-.02,6.883,0,.794-.007,1.4-.009,1.822,0,.2,0,.358,0,.467s0,.155,0,.155" transform="translate(-9.028 -93.419)" fill="#e0e0e0"/>
            <path id="Path_9441" data-name="Path 9441" d="M83.166,126.94a5.108,5.108,0,0,1-.526.764c-.343.458-.829,1.082-1.384,1.755s-1.074,1.271-1.458,1.695a5.12,5.12,0,0,1-.649.662,5.5,5.5,0,0,1,.563-.736l1.42-1.723,1.419-1.724a5.514,5.514,0,0,1,.615-.693" transform="translate(-52.619 -84.392)" fill="#e0e0e0"/>
            <path id="Path_9442" data-name="Path 9442" d="M80.29,240.36a27.45,27.45,0,0,0,3.866,4.835" transform="translate(-53.378 -159.796)" fill="#fff"/>
            <path id="Path_9443" data-name="Path 9443" d="M84.154,245.195a4.423,4.423,0,0,1-.674-.613,21.636,21.636,0,0,1-2.742-3.43,4.41,4.41,0,0,1-.45-.792,6.108,6.108,0,0,1,.544.729c.325.457.782,1.081,1.315,1.748s1.042,1.25,1.416,1.668a6.083,6.083,0,0,1,.591.691" transform="translate(-53.376 -159.796)" fill="#e0e0e0"/>
            <path id="Path_9444" data-name="Path 9444" d="M2.872,244.941l3.864-4.767" transform="translate(-1.909 -159.673)" fill="#fff"/>
            <path id="Path_9445" data-name="Path 9445" d="M6.734,240.173a29.4,29.4,0,0,1-1.869,2.434A29.42,29.42,0,0,1,2.87,244.94a29.383,29.383,0,0,1,1.87-2.434,29.33,29.33,0,0,1,1.994-2.333" transform="translate(-1.907 -159.672)" fill="#e0e0e0"/>
            <path id="Path_9446" data-name="Path 9446" d="M2.883,126.94a26.664,26.664,0,0,1,1.875,2.242,26.743,26.743,0,0,1,1.75,2.342,26.611,26.611,0,0,1-1.876-2.242,26.688,26.688,0,0,1-1.749-2.341" transform="translate(-1.916 -84.392)" fill="#e0e0e0"/>
            <rect id="Rectangle_4912" data-name="Rectangle 4912" width="7.423" height="21.074" transform="translate(12.47 53.979)" fill="#e0e0e0"/>
            <path id="Path_9447" data-name="Path 9447" d="M33.966,36.979A12.113,12.113,0,0,0,27.354,52.76L34.863,71.1l3.369-1.379L30.724,51.38a8.458,8.458,0,1,1,15.654-6.41l3.369-1.379a12.112,12.112,0,0,0-15.781-6.612" transform="translate(-17.586 -23.985)" fill="#e1b23c"/>
            <path id="Path_9448" data-name="Path 9448" d="M33.966,36.979A12.113,12.113,0,0,0,27.354,52.76L34.863,71.1l3.369-1.379L30.724,51.38a8.458,8.458,0,1,1,15.654-6.41l3.369-1.379a12.112,12.112,0,0,0-15.781-6.612" transform="translate(-17.586 -23.985)" fill="#191c26"/>
            <path id="Path_9449" data-name="Path 9449" d="M67.445,105.385,40.873,116.266a1.948,1.948,0,0,1-2.541-1.065L31.881,99.446a1.948,1.948,0,0,1,1.065-2.54L59.517,86.025a1.948,1.948,0,0,1,2.541,1.064l6.452,15.756a1.948,1.948,0,0,1-1.065,2.54" transform="translate(-21.098 -57.094)" fill="#e1b23c"/>
            <g id="Group_11915" data-name="Group 11915" transform="translate(25.338 38.802)" opacity="0.5">
              <g id="Group_11914" data-name="Group 11914">
                <g id="Group_11913" data-name="Group 11913" clip-path="url(#clip-path-3)">
                  <path id="Path_9450" data-name="Path 9450" d="M80.843,117.459a2.726,2.726,0,1,0-2.222,3.73l1.544,3.771,1.376-.563L80,120.625a2.718,2.718,0,0,0,.845-3.166" transform="translate(-75.595 -115.766)"/>
                </g>
              </g>
            </g>
            <path id="Path_9451" data-name="Path 9451" d="M44.459,142.689c-.069.028-1.447-3.177-3.078-7.159s-2.9-7.234-2.828-7.263,1.447,3.177,3.078,7.16,2.9,7.234,2.827,7.262" transform="translate(-25.629 -85.274)" fill="#fafafa"/>
            <path id="Path_9452" data-name="Path 9452" d="M75.525,121.915a.84.84,0,0,1-.365-.047,3.328,3.328,0,0,1-.921-.4,3.82,3.82,0,0,1-.916-5.818,3.332,3.332,0,0,1,.755-.66c.2-.124.325-.17.332-.157a8.587,8.587,0,0,0-.939.937,3.778,3.778,0,0,0,.872,5.537,8.485,8.485,0,0,0,1.182.6" transform="translate(-48.112 -76.344)" fill="#fafafa"/>
            <path id="Path_9453" data-name="Path 9453" d="M15.823,144.879l.163-.475.312.394a2.1,2.1,0,0,0,.966.683l.475.163-.394.312a2.1,2.1,0,0,0-.683.966l-.163.475L16.187,147a2.106,2.106,0,0,0-.966-.683l-.475-.163.394-.312a2.1,2.1,0,0,0,.683-.966" transform="translate(-9.803 -96.003)" fill="#e1b23c"/>
            <path id="Path_9454" data-name="Path 9454" d="M64.179,89.486l.095-.276.181.229a1.225,1.225,0,0,0,.561.4l.276.095-.229.181a1.223,1.223,0,0,0-.4.561l-.095.276-.181-.229a1.222,1.222,0,0,0-.561-.4l-.276-.095.229-.181a1.22,1.22,0,0,0,.4-.561" transform="translate(-42.252 -59.309)" fill="#e1b23c"/>
            <path id="Path_9455" data-name="Path 9455" d="M4.766,95.4l.274-.8.524.662a3.536,3.536,0,0,0,1.623,1.148l.8.274-.661.525a3.535,3.535,0,0,0-1.148,1.623l-.274.8-.524-.662a3.538,3.538,0,0,0-1.623-1.148l-.8-.274.662-.525A3.536,3.536,0,0,0,4.766,95.4" transform="translate(-1.965 -62.891)" fill="#e1b23c"/>
            <path id="Path_9456" data-name="Path 9456" d="M164.581,155.165l-49.477-.029a10.778,10.778,0,0,1-10.772-10.779l.024-124.041A10.778,10.778,0,0,1,115.14,9.54l49.478.029a10.778,10.778,0,0,1,10.771,10.78l-.024,124.041a10.777,10.777,0,0,1-10.784,10.775" transform="translate(-69.362 -6.342)" fill="#191c26"/>
            <path id="Path_9457" data-name="Path 9457" d="M171.068,22.658l-9.593-.006a2.383,2.383,0,0,0-2.329,2.434v1.74a2.383,2.383,0,0,1-2.33,2.434l-18.7-.011a2.386,2.386,0,0,1-2.329-2.436v-1.74a2.386,2.386,0,0,0-2.329-2.436l-3.374,0-8.4-.005a7.549,7.549,0,0,0-7.552,7.547l-.024,121.073a7.548,7.548,0,0,0,7.544,7.55l49.379.029a7.548,7.548,0,0,0,7.552-7.547l.024-121.073a7.548,7.548,0,0,0-7.544-7.55" transform="translate(-75.865 -15.044)" fill="#fff"/>
            <path id="Path_9458" data-name="Path 9458" d="M192.887,399.5a.948.948,0,1,1-.956-.94.948.948,0,0,1,.956.94" transform="translate(-126.975 -264.972)" fill="#191c26"/>
            <path id="Path_9459" data-name="Path 9459" d="M208.732,399.371a.948.948,0,1,1-.956-.94.948.948,0,0,1,.956.94" transform="translate(-137.509 -264.885)" fill="#191c26"/>
            <path id="Path_9460" data-name="Path 9460" d="M224.578,399.24a.948.948,0,1,1-.956-.94.948.948,0,0,1,.956.94" transform="translate(-148.044 -264.798)" fill="#191c26"/>
            <path id="Path_9461" data-name="Path 9461" d="M273.842,59.122c0,.029-1.247.063-2.786.075s-2.787,0-2.787-.029,1.247-.062,2.786-.075,2.786,0,2.787.029" transform="translate(-178.351 -39.283)" fill="#191c26"/>
            <path id="Path_9462" data-name="Path 9462" d="M273.877,63.376c0,.029-1.247.063-2.786.075s-2.787,0-2.787-.029,1.247-.063,2.786-.075,2.786,0,2.787.029" transform="translate(-178.374 -42.111)" fill="#191c26"/>
            <path id="Path_9463" data-name="Path 9463" d="M273.912,67.63c0,.029-1.247.063-2.786.075s-2.787,0-2.787-.03,1.247-.062,2.786-.075,2.786,0,2.787.029" transform="translate(-178.397 -44.94)" fill="#191c26"/>
            <path id="Path_9464" data-name="Path 9464" d="M133.56,63.313a1.026,1.026,0,0,1,.115-.007L134,63.3l1.191-.026-.029.03c0-.263-.008-.552-.013-.863,0-.16-.013-.312,0-.5a.452.452,0,0,1,.4-.363c.19,0,.361-.012.567,0a.456.456,0,0,1,.385.454c0,.4.009.823.014,1.259l-.049-.048,1.5-.015-.051.052c-.005-.6-.011-1.23-.017-1.87q0-.24,0-.477a.376.376,0,0,0-.061-.2,1.179,1.179,0,0,0-.152-.163l-.656-.647-.633-.624-.307-.3a.718.718,0,0,0-.313-.233.409.409,0,0,0-.349.067c-.093.078-.188.186-.28.275l-.538.544c-.339.353-.691.673-.948.979a1.068,1.068,0,0,0-.076.563q0,.28,0,.529c0,.326,0,.611,0,.852,0,.221,0,.4-.005.545,0,.125-.006.2-.006.2s-.005-.06-.009-.181c0-.142-.008-.319-.014-.537q-.008-.366-.018-.858,0-.254-.009-.539c0-.1,0-.194,0-.295a.614.614,0,0,1,.082-.312c.277-.339.609-.641.95-1l.535-.547c.1-.094.176-.189.289-.287a.5.5,0,0,1,.43-.084.8.8,0,0,1,.358.256l.308.3.635.623.658.646a1.221,1.221,0,0,1,.167.181.484.484,0,0,1,.078.25q0,.238,0,.479c0,.641.01,1.266.014,1.87v.052h-.051l-1.5.01h-.049V63.29c0-.436,0-.856-.007-1.259a.367.367,0,0,0-.308-.37c-.175-.009-.376,0-.546,0a.373.373,0,0,0-.328.3c-.014.153,0,.327-.006.48,0,.312,0,.6,0,.863v.03h-.029l-1.209-.006-.315,0a.642.642,0,0,1-.1-.005" transform="translate(-88.757 -38.995)" fill="#191c26"/>
            <path id="Path_9465" data-name="Path 9465" d="M162.522,154.566c0,1.162-.871,1.884-2.264,1.884h-1.05v1.437H158v-5.213h2.256c1.392,0,2.264.722,2.264,1.891m-1.221,0c0-.574-.372-.908-1.11-.908h-.983v1.81h.983c.737,0,1.11-.335,1.11-.9" transform="translate(-105.043 -101.501)" fill="#191c26"/>
            <path id="Path_9466" data-name="Path 9466" d="M176.715,157.876v2.286h-1.087v-.5a1.315,1.315,0,0,1-1.221.559c-.939,0-1.5-.522-1.5-1.214s.5-1.2,1.72-1.2h.923c0-.5-.3-.789-.923-.789a1.927,1.927,0,0,0-1.154.372l-.417-.811a3.078,3.078,0,0,1,1.728-.484c1.221,0,1.929.566,1.929,1.779m-1.162,1.02v-.41h-.8c-.544,0-.715.2-.715.469,0,.29.246.484.655.484a.856.856,0,0,0,.856-.544" transform="translate(-114.954 -103.776)" fill="#191c26"/>
            <path id="Path_9467" data-name="Path 9467" d="M186.241,159.79l.387-.834a2.745,2.745,0,0,0,1.393.387c.536,0,.737-.141.737-.365,0-.655-2.42.015-2.42-1.586,0-.759.685-1.3,1.854-1.3a3.292,3.292,0,0,1,1.541.35l-.387.827a2.3,2.3,0,0,0-1.154-.3c-.521,0-.745.164-.745.372,0,.685,2.42.022,2.42,1.6,0,.745-.692,1.274-1.891,1.274a3.44,3.44,0,0,1-1.735-.432" transform="translate(-123.817 -103.776)" fill="#191c26"/>
            <path id="Path_9468" data-name="Path 9468" d="M198.039,159.79l.387-.834a2.745,2.745,0,0,0,1.393.387c.536,0,.737-.141.737-.365,0-.655-2.42.015-2.42-1.586,0-.759.685-1.3,1.854-1.3a3.293,3.293,0,0,1,1.542.35l-.387.827a2.3,2.3,0,0,0-1.155-.3c-.521,0-.744.164-.744.372,0,.685,2.42.022,2.42,1.6,0,.745-.692,1.274-1.891,1.274a3.439,3.439,0,0,1-1.735-.432" transform="translate(-131.66 -103.776)" fill="#191c26"/>
            <path id="Path_9469" data-name="Path 9469" d="M216.155,156.274l-1.452,4.006h-1.117l-.9-2.487-.93,2.487h-1.117l-1.445-4.006h1.095l.946,2.711.983-2.711h.983l.953,2.711.975-2.711Z" transform="translate(-139.075 -103.894)" fill="#191c26"/>
            <path id="Path_9470" data-name="Path 9470" d="M230.366,158.16a2.205,2.205,0,1,1,2.2,2.063,2.062,2.062,0,0,1-2.2-2.063m3.224,0a1.027,1.027,0,1,0-1.02,1.109,1.011,1.011,0,0,0,1.02-1.109" transform="translate(-153.152 -103.776)" fill="#191c26"/>
            <path id="Path_9471" data-name="Path 9471" d="M248.3,156.1v1.072c-.1-.007-.171-.015-.26-.015a.984.984,0,0,0-1.065,1.117v1.891h-1.162v-4.006h1.11v.529a1.616,1.616,0,0,1,1.377-.588" transform="translate(-163.418 -103.776)" fill="#191c26"/>
            <path id="Path_9472" data-name="Path 9472" d="M258.7,151.742v5.525h-1.109v-.462a1.541,1.541,0,0,1-1.251.521,2.064,2.064,0,0,1,0-4.125,1.54,1.54,0,0,1,1.2.484v-1.944Zm-1.139,3.522a1.027,1.027,0,1,0-1.02,1.109,1.015,1.015,0,0,0,1.02-1.109" transform="translate(-169.09 -100.881)" fill="#191c26"/>
            <path id="Path_9473" data-name="Path 9473" d="M184.082,180.91c0,.048-12.411.087-27.718.087s-27.721-.039-27.721-.087,12.409-.087,27.721-.087,27.718.039,27.718.087" transform="translate(-85.525 -120.215)" fill="#e0e0e0"/>
            <path id="Path_9474" data-name="Path 9474" d="M180.207,333.175c0,.048-12.411.087-27.718.087s-27.72-.039-27.72-.087,12.409-.087,27.72-.087,27.718.039,27.718.087" transform="translate(-82.949 -221.444)" fill="#e0e0e0"/>
            <path id="Path_9475" data-name="Path 9475" d="M191.674,344.608c0,.048-6.894.087-15.4.087s-15.4-.039-15.4-.087,6.893-.087,15.4-.087,15.4.039,15.4.087" transform="translate(-106.955 -229.045)" fill="#e0e0e0"/>
            <path id="Path_9476" data-name="Path 9476" d="M137.8,221.627l1.05.568-.472.79-1.06-.627.019,1.166h-.906l.01-1.175-1.06.636-.463-.79,1.05-.568-1.05-.578.463-.79,1.06.636-.01-1.175h.906l-.019,1.175,1.06-.636.472.79Z" transform="translate(-89.7 -146.074)" fill="#e1b23c"/>
            <path id="Path_9477" data-name="Path 9477" d="M173.721,221.627l1.05.568-.472.79-1.06-.627.019,1.166h-.906l.01-1.175-1.06.636-.463-.79,1.05-.568-1.05-.578.463-.79,1.06.636-.01-1.175h.906l-.019,1.175,1.06-.636.472.79Z" transform="translate(-113.578 -146.074)" fill="#e1b23c"/>
            <path id="Path_9478" data-name="Path 9478" d="M208.685,221.627l1.05.568-.472.79-1.06-.627.019,1.166h-.906l.01-1.175-1.06.636-.463-.79,1.05-.568-1.05-.578.463-.79,1.06.636-.01-1.175h.906l-.019,1.175,1.06-.636.472.79Z" transform="translate(-136.823 -146.074)" fill="#e1b23c"/>
            <path id="Path_9479" data-name="Path 9479" d="M242.554,221.627l1.05.568-.472.79-1.06-.627.019,1.166h-.906l.01-1.175-1.06.636-.463-.79,1.05-.568-1.05-.578.463-.79,1.06.636-.01-1.175h.906l-.019,1.175,1.06-.636.472.79Z" transform="translate(-159.339 -146.074)" fill="#e1b23c"/>
            <path id="Path_9480" data-name="Path 9480" d="M276.16,221.627l1.05.568-.472.79-1.06-.627.019,1.166h-.906l.01-1.175-1.06.636-.463-.79,1.05-.568-1.05-.578.463-.79,1.06.636-.01-1.175h.906l-.019,1.175,1.06-.636.472.79Z" transform="translate(-181.681 -146.074)" fill="#e1b23c"/>
            <path id="Path_9481" data-name="Path 9481" d="M134.32,219.913h-5.081a2.371,2.371,0,0,1-2.368-2.368v-9.016a2.371,2.371,0,0,1,2.368-2.368h5.081a2.371,2.371,0,0,1,2.369,2.368v9.016a2.371,2.371,0,0,1-2.369,2.368m-5.081-13.585a2.2,2.2,0,0,0-2.2,2.2v9.016a2.2,2.2,0,0,0,2.2,2.2h5.081a2.2,2.2,0,0,0,2.2-2.2v-9.016a2.2,2.2,0,0,0-2.2-2.2Z" transform="translate(-84.346 -137.059)" fill="#191c26"/>
            <path id="Path_9482" data-name="Path 9482" d="M169.51,219.913h-5.081a2.371,2.371,0,0,1-2.368-2.368v-9.016a2.371,2.371,0,0,1,2.368-2.368h5.081a2.371,2.371,0,0,1,2.369,2.368v9.016a2.371,2.371,0,0,1-2.369,2.368m-5.081-13.585a2.2,2.2,0,0,0-2.2,2.2v9.016a2.2,2.2,0,0,0,2.2,2.2h5.081a2.2,2.2,0,0,0,2.2-2.2v-9.016a2.2,2.2,0,0,0-2.2-2.2Z" transform="translate(-107.741 -137.059)" fill="#191c26"/>
            <path id="Path_9483" data-name="Path 9483" d="M203.732,219.913h-5.08a2.371,2.371,0,0,1-2.369-2.368v-9.016a2.371,2.371,0,0,1,2.369-2.368h5.08a2.371,2.371,0,0,1,2.369,2.368v9.016a2.371,2.371,0,0,1-2.369,2.368m-5.08-13.585a2.2,2.2,0,0,0-2.2,2.2v9.016a2.2,2.2,0,0,0,2.2,2.2h5.08a2.2,2.2,0,0,0,2.2-2.2v-9.016a2.2,2.2,0,0,0-2.2-2.2Z" transform="translate(-130.493 -137.059)" fill="#191c26"/>
            <path id="Path_9484" data-name="Path 9484" d="M238.343,219.913h-5.081a2.371,2.371,0,0,1-2.368-2.368v-9.016a2.371,2.371,0,0,1,2.368-2.368h5.081a2.371,2.371,0,0,1,2.369,2.368v9.016a2.371,2.371,0,0,1-2.369,2.368m-5.081-13.585a2.2,2.2,0,0,0-2.2,2.2v9.016a2.2,2.2,0,0,0,2.2,2.2h5.081a2.2,2.2,0,0,0,2.2-2.2v-9.016a2.2,2.2,0,0,0-2.2-2.2Z" transform="translate(-153.503 -137.059)" fill="#191c26"/>
            <path id="Path_9485" data-name="Path 9485" d="M271.949,219.913h-5.081a2.371,2.371,0,0,1-2.368-2.368v-9.016a2.371,2.371,0,0,1,2.368-2.368h5.081a2.371,2.371,0,0,1,2.369,2.368v9.016a2.371,2.371,0,0,1-2.369,2.368m-5.081-13.585a2.2,2.2,0,0,0-2.2,2.2v9.016a2.2,2.2,0,0,0,2.2,2.2h5.081a2.2,2.2,0,0,0,2.2-2.2v-9.016a2.2,2.2,0,0,0-2.2-2.2Z" transform="translate(-175.845 -137.059)" fill="#191c26"/>
            <path id="Path_9486" data-name="Path 9486" d="M180.231,289.64H130.89a3.784,3.784,0,0,1-3.784-3.784v-2.4a3.784,3.784,0,0,1,3.784-3.784h49.341a3.784,3.784,0,0,1,3.784,3.784v2.4a3.784,3.784,0,0,1-3.784,3.784" transform="translate(-84.503 -185.932)" fill="#e1b23c"/>
            <path id="Path_9487" data-name="Path 9487" d="M190.57,288.566H192.1a1.694,1.694,0,1,1,0,3.372H190.57Zm1.494,2.731a1.047,1.047,0,1,0,0-2.091h-.713V291.3Z" transform="translate(-126.695 -191.845)" fill="#fff"/>
            <path id="Path_9488" data-name="Path 9488" d="M201.713,292.114a1.427,1.427,0,1,1,1.426,1.334,1.334,1.334,0,0,1-1.426-1.334m2.086,0a.664.664,0,1,0-.66.718.654.654,0,0,0,.66-.718" transform="translate(-134.103 -193.316)" fill="#fff"/>
            <path id="Path_9489" data-name="Path 9489" d="M214.357,291.926v1.484h-.751v-1.368c0-.419-.193-.612-.525-.612-.361,0-.621.222-.621.7v1.281h-.751v-2.592h.718v.3a1.134,1.134,0,0,1,.858-.342,1.016,1.016,0,0,1,1.074,1.147" transform="translate(-140.747 -193.316)" fill="#fff"/>
            <path id="Path_9490" data-name="Path 9490" d="M223.871,292.326h-1.96a.692.692,0,0,0,.742.52.879.879,0,0,0,.65-.25l.4.433a1.513,1.513,0,0,1-2.548-.915,1.32,1.32,0,0,1,1.383-1.335,1.283,1.283,0,0,1,1.349,1.344c0,.058-.01.14-.015.2m-1.97-.438h1.277a.647.647,0,0,0-1.277,0" transform="translate(-147.028 -193.316)" fill="#fff"/>
            <path id="Path_9491" data-name="Path 9491" d="M200.425,87.652a10.072,10.072,0,1,1-10.071-10.071,10.071,10.071,0,0,1,10.071,10.071" transform="translate(-119.855 -51.577)" fill="#e1b23c"/>
            <path id="Path_9492" data-name="Path 9492" d="M204.709,96.4h-.168v-.941a1.965,1.965,0,0,1,3.929,0v.766H208.3v-.766a1.8,1.8,0,0,0-3.594,0Z" transform="translate(-135.983 -62.16)" fill="#fff"/>
            <path id="Path_9493" data-name="Path 9493" d="M206.231,108.568h-4.994a.83.83,0,0,1-.829-.829v-4.995a.829.829,0,0,1,.829-.828h4.994a.829.829,0,0,1,.829.828v4.995a.83.83,0,0,1-.829.829m-4.994-6.484a.662.662,0,0,0-.661.661v4.995a.662.662,0,0,0,.661.661h4.994a.662.662,0,0,0,.661-.661v-4.995a.661.661,0,0,0-.661-.661Z" transform="translate(-133.235 -67.756)" fill="#fff"/>
            <path id="Path_9494" data-name="Path 9494" d="M208.847,109.217a.784.784,0,1,1,.784-.784.785.785,0,0,1-.784.784m0-1.4a.616.616,0,1,0,.616.616.617.617,0,0,0-.616-.616" transform="translate(-138.325 -71.567)" fill="#fff"/>
            <rect id="Rectangle_4914" data-name="Rectangle 4914" width="0.168" height="1.415" transform="translate(70.414 37.53)" fill="#fff"/>
            <path id="Path_9495" data-name="Path 9495" d="M392.393,393.943l-6.326-14.591-7.257,4.658,7.7,13.338,3.858-1.73Z" transform="translate(-251.84 -252.201)" fill="#ffbe9d"/>
            <path id="Path_9496" data-name="Path 9496" d="M405.631,420.457l.21.413s8.43-.719,9.175.574L401.06,428.39l-2.122-4.739a8.92,8.92,0,0,0,6.693-3.194" transform="translate(-265.222 -279.528)" fill="#e1b23c"/>
            <g id="Group_11918" data-name="Group 11918" transform="translate(135.669 144.762)" opacity="0.6">
              <g id="Group_11917" data-name="Group 11917">
                <g id="Group_11916" data-name="Group 11916" clip-path="url(#clip-path-4)">
                  <path id="Path_9497" data-name="Path 9497" d="M404.963,432.037a.637.637,0,0,0-.07.847.612.612,0,0,0,.839.077.672.672,0,0,0,.07-.9.635.635,0,0,0-.881.016" transform="translate(-404.764 -431.894)" fill="#fff"/>
                </g>
              </g>
            </g>
            <g id="Group_11921" data-name="Group 11921" transform="translate(135.327 141.481)" opacity="0.6">
              <g id="Group_11920" data-name="Group 11920">
                <g id="Group_11919" data-name="Group 11919" clip-path="url(#clip-path-5)">
                  <path id="Path_9498" data-name="Path 9498" d="M404.256,429.485l-.51-1.14,13.563-6.24s.756-.039.9.434Z" transform="translate(-403.746 -422.105)" fill="#fff"/>
                </g>
              </g>
            </g>
            <path id="Path_9499" data-name="Path 9499" d="M417.883,421.7c.032.069-.294.27-.52.656s-.262.761-.339.765-.171-.44.112-.9.73-.589.747-.519" transform="translate(-277.196 -280.341)" fill="#191c26"/>
            <path id="Path_9500" data-name="Path 9500" d="M423.878,421.344c.049.058-.189.321-.277.725s0,.741-.072.772-.3-.333-.185-.833.5-.729.535-.664" transform="translate(-281.426 -280.111)" fill="#191c26"/>
            <path id="Path_9501" data-name="Path 9501" d="M429.43,422.507c-.055.045-.319-.248-.33-.708s.234-.768.291-.725-.041.34-.026.718.129.675.065.715" transform="translate(-285.274 -279.936)" fill="#191c26"/>
            <path id="Path_9502" data-name="Path 9502" d="M367.4,398.9l.242-15.9-8.531,1.258,1.523,15.324,4.228.012Z" transform="translate(-238.744 -254.625)" fill="#ffbe9d"/>
            <path id="Path_9503" data-name="Path 9503" d="M369.711,428.052l.021.463s7.979,2.816,8.125,4.3l-15.578.585.017-5.192a8.918,8.918,0,0,0,7.415-.156" transform="translate(-240.851 -284.578)" fill="#e1b23c"/>
            <g id="Group_11924" data-name="Group 11924" transform="translate(122.654 145.196)" opacity="0.6">
              <g id="Group_11923" data-name="Group 11923">
                <g id="Group_11922" data-name="Group 11922" clip-path="url(#clip-path-6)">
                  <path id="Path_9504" data-name="Path 9504" d="M366.367,433.222a.636.636,0,0,0-.413.742.612.612,0,0,0,.732.416.671.671,0,0,0,.433-.789.635.635,0,0,0-.809-.348" transform="translate(-365.936 -433.19)" fill="#fff"/>
                </g>
              </g>
            </g>
            <g id="Group_11927" data-name="Group 11927" transform="translate(121.428 147.47)" opacity="0.6">
              <g id="Group_11926" data-name="Group 11926">
                <g id="Group_11925" data-name="Group 11925" clip-path="url(#clip-path-7)">
                  <path id="Path_9505" data-name="Path 9505" d="M362.279,441.324l0-1.249,14.93-.1s.7.276.645.767Z" transform="translate(-362.279 -439.972)" fill="#fff"/>
                </g>
              </g>
            </g>
            <path id="Path_9506" data-name="Path 9506" d="M381.93,429.433c0,.076-.379.125-.744.384s-.552.586-.623.558c-.071-.012.025-.471.473-.777s.908-.236.894-.165" transform="translate(-252.992 -285.455)" fill="#191c26"/>
            <path id="Path_9507" data-name="Path 9507" d="M387.66,431.334c.02.073-.3.215-.551.546s-.308.674-.384.674-.14-.429.174-.835.756-.458.761-.385" transform="translate(-257.063 -286.741)" fill="#191c26"/>
            <path id="Path_9508" data-name="Path 9508" d="M392.417,434.473c-.069.019-.189-.357-.009-.781s.529-.6.564-.541-.177.293-.32.643-.16.668-.235.679" transform="translate(-260.818 -287.96)" fill="#191c26"/>
            <path id="Path_9509" data-name="Path 9509" d="M364.868,198.437l1.065,3.466c1.562.992,4.084,5.934,4.316,7.952a114.988,114.988,0,0,1,.21,17.023c-.39,6.66-3.689,45.643-3.689,45.643l-13.321.7,1.388-63.034.585-11.255Z" transform="translate(-234.981 -131.925)" fill="#242937"/>
            <path id="Path_9510" data-name="Path 9510" d="M319.425,220.355a2.023,2.023,0,0,0,.461.137,7.568,7.568,0,0,0,1.3.175,8.463,8.463,0,0,0,7.45-3.692,7.58,7.58,0,0,0,.647-1.14,2.044,2.044,0,0,0,.17-.449,17.725,17.725,0,0,1-.925,1.513,8.722,8.722,0,0,1-7.337,3.637,17.693,17.693,0,0,1-1.764-.18" transform="translate(-212.36 -143.192)" fill="#242937"/>
            <path id="Path_9511" data-name="Path 9511" d="M385.995,210.238a.922.922,0,0,0,.076.289,6.616,6.616,0,0,0,.308.753,9.693,9.693,0,0,0,3.514,3.987,6.688,6.688,0,0,0,.708.4.929.929,0,0,0,.278.112c.015-.028-.357-.231-.912-.621a11.166,11.166,0,0,1-3.47-3.937c-.318-.6-.473-.994-.5-.983" transform="translate(-256.615 -139.77)" fill="#242937"/>
            <path id="Path_9512" data-name="Path 9512" d="M352.109,241.988s.033.087.089.259l.245.767.926,2.955,3.373,10.877c2.891,9.17,6.56,21.943,11.48,35.768l1.676,4.9.029.085-.086.028-14.08,4.622-.076.025-.027-.075-8.093-22.447-2.3-6.432-.606-1.712-.153-.442c-.034-.1-.048-.152-.048-.152s.023.049.061.147l.166.437.631,1.7,2.348,6.416,8.154,22.425-.1-.05,14.077-4.634-.056.113-1.677-4.906c-4.921-13.827-8.571-26.607-11.432-35.787L353.3,245.99l-.894-2.965-.228-.773c-.05-.174-.072-.265-.072-.265" transform="translate(-229 -160.879)" fill="#242937"/>
            <path id="Path_9513" data-name="Path 9513" d="M335.825,212.166l-.317-12.521-12.187.641-.4,1.481a67.046,67.046,0,0,0-1.6,6.971,29.442,29.442,0,0,0,1.335,15.624c2.056,5.605,5.288,16.27,5.288,16.27l12.092,33.394,14.079-4.628Z" transform="translate(-213.308 -132.728)" fill="#191c26"/>
            <path id="Path_9514" data-name="Path 9514" d="M337.142,114.008s-.637-3.566-2.463-5.27-9.438-3.636-9.438-3.636.09,2.642-1.611,3.351a4.291,4.291,0,0,1-5.038-.993,7.292,7.292,0,0,1-1.735-3.314s-9.022,1.317-10.307,3.762-2.625,11.728-2.625,11.728l8.175,1.29-.266,15.882,21.484-1.131-1.2-14.828,5.893.527Z" transform="translate(-202.056 -69.238)" fill="#e1b23c"/>
            <path id="Path_9515" data-name="Path 9515" d="M331.842,137.556a1.342,1.342,0,0,0,.01-.358c-.006-.23-.02-.562-.042-.973-.044-.82-.116-1.953-.208-3.2s-.185-2.381-.262-3.2c-.039-.409-.073-.74-.1-.968a.18.18,0,1,0-.072,0c.006.23.02.562.042.972.043.821.116,1.953.208,3.2s.185,2.382.262,3.2c.039.409.073.74.1.968a1.328,1.328,0,0,0,.062.353" transform="translate(-220.164 -85.429)" fill="#191c26"/>
            <path id="Path_9516" data-name="Path 9516" d="M389.509,132.885c-.05-.012-.47,1.62-.938,3.643s-.807,3.674-.756,3.686.47-1.619.938-3.643.807-3.674.757-3.685" transform="translate(-257.824 -88.345)" fill="#191c26"/>
            <path id="Path_9517" data-name="Path 9517" d="M314.364,113.515c0,.034.389.084.991.278a7.035,7.035,0,0,1,3.8,2.972c.333.538.478.907.509.894a.806.806,0,0,0-.075-.269,4.47,4.47,0,0,0-.32-.692,6.421,6.421,0,0,0-3.88-3.031,4.463,4.463,0,0,0-.749-.143.812.812,0,0,0-.28-.008" transform="translate(-208.996 -75.462)" fill="#191c26"/>
            <path id="Path_9518" data-name="Path 9518" d="M395.24,119.988a7.453,7.453,0,0,0-.458,2.305,7.45,7.45,0,0,0,.458-2.305" transform="translate(-262.447 -79.77)" fill="#191c26"/>
            <path id="Path_9519" data-name="Path 9519" d="M308.264,151.046s3.069,12.17,3.4,13.208.929,3.847,3.892,4.278c4,.583,19.52-.788,19.52-.788l-3.128-3.558-13.8-3.1-2.33-8.849Z" transform="translate(-204.94 -100.418)" fill="#ffbe9d"/>
            <path id="Path_9520" data-name="Path 9520" d="M378.935,184.015a.869.869,0,0,0-.1.29,4.049,4.049,0,0,0-.113.828,4.735,4.735,0,0,0,.7,2.649,5.53,5.53,0,0,0,.955,1.187,2.978,2.978,0,0,0,1.075.637,2.907,2.907,0,0,0,.827.141.911.911,0,0,0,.306-.026,6.269,6.269,0,0,1-1.089-.239,3.027,3.027,0,0,1-1-.639,5.8,5.8,0,0,1-.913-1.159,4.956,4.956,0,0,1-.723-2.549c-.005-.691.116-1.113.082-1.12" transform="translate(-251.779 -122.337)" fill="#eb996e"/>
            <path id="Path_9521" data-name="Path 9521" d="M314.6,143.567a1.486,1.486,0,0,1-.368-.036l-.992-.145c-.837-.121-2-.258-3.281-.424a32.608,32.608,0,0,1-3.267-.568c-.413-.1-.745-.189-.971-.263a1.48,1.48,0,0,1-.346-.129c.008-.028.515.1,1.344.269s1.983.348,3.264.514,2.443.323,3.278.476c.418.076.754.144.985.2a1.467,1.467,0,0,1,.355.1" transform="translate(-203.019 -94.403)" fill="#242937"/>
            <path id="Path_9522" data-name="Path 9522" d="M315.16,132.6a1.1,1.1,0,0,1-.318.017c-.2,0-.5-.009-.864-.027-.729-.036-1.734-.115-2.839-.252s-2.1-.309-2.815-.453c-.358-.072-.646-.136-.844-.186a1.078,1.078,0,0,1-.3-.1,8.833,8.833,0,0,1,1.17.157c.719.112,1.713.262,2.814.4s2.1.236,2.826.3a8.813,8.813,0,0,1,1.172.136" transform="translate(-204.218 -87.489)" fill="#242937"/>
            <path id="Path_9523" data-name="Path 9523" d="M316.293,123.01a4.3,4.3,0,0,1-.955-.008,19.928,19.928,0,0,1-4.524-.849,4.341,4.341,0,0,1-.893-.339,6.082,6.082,0,0,1,.928.218c.568.146,1.357.336,2.236.5s1.682.274,2.265.343a6.113,6.113,0,0,1,.944.134" transform="translate(-206.042 -80.982)" fill="#242937"/>
            <path id="Path_9524" data-name="Path 9524" d="M331.159,112.271a6.55,6.55,0,0,1-1.077.32c-.672.172-1.605.388-2.643.6s-1.983.366-2.669.466a6.537,6.537,0,0,1-1.117.118,7.462,7.462,0,0,1,1.1-.243l2.655-.517,2.649-.544a7.532,7.532,0,0,1,1.105-.2" transform="translate(-215.171 -74.637)" fill="#242937"/>
            <path id="Path_9525" data-name="Path 9525" d="M376.64,115.63a1.8,1.8,0,0,1-.384-.134l-1.024-.421c-.863-.358-2.056-.848-3.383-1.367s-2.537-.966-3.414-1.287l-1.038-.384a1.824,1.824,0,0,1-.374-.162,1.774,1.774,0,0,1,.4.1c.251.072.613.185,1.057.331.889.291,2.108.721,3.438,1.24s2.517,1.03,3.368,1.418c.425.194.768.356,1,.473a1.788,1.788,0,0,1,.356.2" transform="translate(-244.005 -74.374)" fill="#242937"/>
            <path id="Path_9526" data-name="Path 9526" d="M352.238,128.106a.937.937,0,0,1-.209-.022l-.595-.1-2.18-.381c-1.841-.321-4.383-.768-7.211-1.109-1.415-.166-2.767-.282-4-.354s-2.343-.091-3.276-.076c-.467,0-.888.019-1.259.029s-.689.026-.95.044l-.6.03a.952.952,0,0,1-.211,0,.915.915,0,0,1,.207-.035l.6-.064c.26-.028.58-.056.951-.074s.793-.052,1.261-.056c.935-.031,2.051-.017,3.287.038s2.593.175,4.011.342c2.835.342,5.378.809,7.213,1.162.918.177,1.659.328,2.171.437l.588.129a.957.957,0,0,1,.2.057" transform="translate(-220.552 -83.718)" fill="#242937"/>
            <path id="Path_9527" data-name="Path 9527" d="M344.2,144.6a2.282,2.282,0,0,1-.461-.011c-.3-.018-.723-.055-1.251-.109-1.054-.109-2.507-.3-4.1-.591s-3.02-.624-4.046-.895c-.512-.135-.925-.251-1.209-.339a2.31,2.31,0,0,1-.435-.153,2.283,2.283,0,0,1,.453.085l1.221.284c1.031.239,2.459.551,4.047.841s3.034.5,4.083.642l1.243.165a2.282,2.282,0,0,1,.454.08" transform="translate(-221.186 -94.739)" fill="#242937"/>
            <path id="Path_9528" data-name="Path 9528" d="M375.251,148.984a64.892,64.892,0,0,1-6.814.064,64.9,64.9,0,0,1,6.814-.064" transform="translate(-244.945 -99.006)" fill="#242937"/>
            <path id="Path_9529" data-name="Path 9529" d="M342.057,159.225a1.488,1.488,0,0,1-.371-.017c-.238-.022-.58-.064-1-.124-.844-.12-2.005-.325-3.273-.621s-2.4-.628-3.209-.895c-.405-.133-.731-.248-.953-.333a1.51,1.51,0,0,1-.34-.149,1.478,1.478,0,0,1,.362.083l.968.279c.817.235,1.95.546,3.213.842s2.416.519,3.252.671l.991.18a1.492,1.492,0,0,1,.361.086" transform="translate(-221.325 -104.432)" fill="#242937"/>
            <path id="Path_9530" data-name="Path 9530" d="M369.309,162.63a5.63,5.63,0,0,1-1.079.011c-.666-.024-1.585-.091-2.595-.222s-1.915-.3-2.565-.449a5.655,5.655,0,0,1-1.041-.286,7.5,7.5,0,0,1,1.065.163c.655.115,1.559.264,2.564.4s1.917.217,2.579.273a7.5,7.5,0,0,1,1.072.115" transform="translate(-240.684 -107.487)" fill="#242937"/>
            <path id="Path_9531" data-name="Path 9531" d="M350.8,175.678a.452.452,0,0,1-.136.055c-.091.029-.225.076-.4.121a13.088,13.088,0,0,1-1.508.313,19.671,19.671,0,0,1-5.074.042,39.68,39.68,0,0,1-4.989-.935c-.63-.155-1.138-.289-1.488-.385a3.372,3.372,0,0,1-.539-.167,3.405,3.405,0,0,1,.555.1l1.5.329a48.437,48.437,0,0,0,4.98.881,21.438,21.438,0,0,0,5.037.01c.641-.081,1.156-.179,1.509-.256a3.951,3.951,0,0,1,.553-.109" transform="translate(-223.821 -116.158)" fill="#242937"/>
            <path id="Path_9532" data-name="Path 9532" d="M395.188,139.918a10.552,10.552,0,0,1-1.7.138,6.752,6.752,0,0,1-1.708-.04,10.5,10.5,0,0,1,1.7-.138,6.711,6.711,0,0,1,1.708.04" transform="translate(-260.463 -92.979)" fill="#242937"/>
            <path id="Path_9533" data-name="Path 9533" d="M396.923,127.535a4.88,4.88,0,0,1-1.855-.121,4.879,4.879,0,0,1,1.855.121" transform="translate(-262.649 -84.676)" fill="#242937"/>
            <path id="Path_9534" data-name="Path 9534" d="M358.262,152.2c-.016-.031.351-.213.852-.629a5.945,5.945,0,0,0,.8-.812,6.061,6.061,0,0,0,1.2-2.491,5.919,5.919,0,0,0,.139-1.131c.015-.651-.071-1.052-.037-1.059a.893.893,0,0,1,.079.277,2.142,2.142,0,0,1,.054.334,3.576,3.576,0,0,1,.03.448,5.3,5.3,0,0,1-.1,1.165,5.747,5.747,0,0,1-1.237,2.562,5.343,5.343,0,0,1-.847.806,3.569,3.569,0,0,1-.37.254,2.157,2.157,0,0,1-.295.166.891.891,0,0,1-.267.11" transform="translate(-238.18 -97.116)" fill="#191c26"/>
            <g id="Group_11930" data-name="Group 11930" transform="translate(118.158 51.821)" opacity="0.3">
              <g id="Group_11929" data-name="Group 11929">
                <g id="Group_11928" data-name="Group 11928" clip-path="url(#clip-path-8)">
                  <path id="Path_9535" data-name="Path 9535" d="M357.318,154.607l-1.306,1.936a6.193,6.193,0,0,1-3.492,2.176,3.654,3.654,0,0,0,4.8-4.112" transform="translate(-352.52 -154.607)"/>
                </g>
              </g>
            </g>
            <path id="Path_9536" data-name="Path 9536" d="M371.093,70.118a6.49,6.49,0,0,0,3.6-.733,7.627,7.627,0,0,1-3.141-4.607A33.92,33.92,0,0,1,370.4,57.9l-2.969,13.2a7.993,7.993,0,0,0,4.711-.364,1.3,1.3,0,0,1-1.047-.61" transform="translate(-244.274 -38.491)" fill="#191c26"/>
            <path id="Path_9537" data-name="Path 9537" d="M334.671,85.219a9.3,9.3,0,0,1-.718-4.718l-5.987-2.269a10.569,10.569,0,0,1-1.91,4.5c-.366.5-.8,1.072-.629,1.664a1.25,1.25,0,0,0,.928.793,3.691,3.691,0,0,0,1.272.016l-.765.834a45.982,45.982,0,0,1,7.808-.82" transform="translate(-216.326 -52.011)" fill="#191c26"/>
            <path id="Path_9538" data-name="Path 9538" d="M337.525,40.219a6.942,6.942,0,0,0-4.988,1.787,9.644,9.644,0,0,0-3.115,10.524,7.417,7.417,0,0,0,3.942,4.3,7.5,7.5,0,0,0,7.653-1.344,9.392,9.392,0,0,0,3.056-7.312,9.019,9.019,0,0,0-1.774-5.258,6.87,6.87,0,0,0-4.773-2.693" transform="translate(-218.674 -26.72)" fill="#191c26"/>
            <path id="Path_9539" data-name="Path 9539" d="M339.591,46.971a10.352,10.352,0,0,0,.127-2.287,4.973,4.973,0,0,1,2.9-3.859,7.254,7.254,0,0,1,4.957-.234,6.659,6.659,0,0,1,3.245,1.824,5.247,5.247,0,0,1,1.27,4.639l-8.611-.684A9.53,9.53,0,0,1,341,48.241a1.765,1.765,0,0,1-.881.2.8.8,0,0,1-.7-.5,1.688,1.688,0,0,1,.17-.966" transform="translate(-225.634 -26.775)" fill="#191c26"/>
            <path id="Path_9540" data-name="Path 9540" d="M347.83,48.164l-7.343,2.065a1.394,1.394,0,0,0-1.209,1.446l1.145,16.109a5.014,5.014,0,0,0,1.249,2.97l.77.869a3.683,3.683,0,0,0,6.106-.859,1.779,1.779,0,0,0,.144-.433,3.354,3.354,0,0,0,.046-.368,11.684,11.684,0,0,0-.031-2.449c-.021-1.44-.038-2.03-.036-2.016s3.022-.585,3.546-4.562a42.318,42.318,0,0,0-.161-7.841c-.213-2.372-1.865-5.246-4.226-4.932" transform="translate(-225.558 -32.005)" fill="#ffbe9d"/>
            <path id="Path_9541" data-name="Path 9541" d="M371.177,69.612a.508.508,0,0,1-.476.526.486.486,0,0,1-.536-.444.508.508,0,0,1,.476-.526.486.486,0,0,1,.536.444" transform="translate(-246.093 -45.983)" fill="#191c26"/>
            <path id="Path_9542" data-name="Path 9542" d="M371.463,66.987c-.061.068-.453-.206-1-.191s-.94.3-1,.235c-.03-.029.031-.15.2-.282a1.394,1.394,0,0,1,.8-.27,1.339,1.339,0,0,1,.8.235c.172.124.232.243.2.273" transform="translate(-245.621 -44.197)" fill="#191c26"/>
            <path id="Path_9543" data-name="Path 9543" d="M355.739,70.423a.508.508,0,0,1-.476.526.486.486,0,0,1-.536-.444.508.508,0,0,1,.476-.526.486.486,0,0,1,.536.444" transform="translate(-235.829 -46.522)" fill="#191c26"/>
            <path id="Path_9544" data-name="Path 9544" d="M355.441,67.717c-.061.068-.454-.206-1-.19s-.94.3-1,.234c-.03-.029.03-.15.2-.282a1.393,1.393,0,0,1,.8-.27,1.34,1.34,0,0,1,.8.235c.171.124.232.243.2.273" transform="translate(-234.969 -44.682)" fill="#191c26"/>
            <path id="Path_9545" data-name="Path 9545" d="M364.918,71.641a3.67,3.67,0,0,1,.884-.183c.139-.018.271-.049.292-.145a.71.71,0,0,0-.1-.411l-.441-1.052a18.269,18.269,0,0,1-1-2.755,18.244,18.244,0,0,1,1.22,2.668q.222.554.424,1.059a.807.807,0,0,1,.087.546.351.351,0,0,1-.224.21.942.942,0,0,1-.236.039,3.516,3.516,0,0,1-.9.025" transform="translate(-242.355 -44.605)" fill="#191c26"/>
            <path id="Path_9546" data-name="Path 9546" d="M356.708,97.4a10.079,10.079,0,0,1-5.342-1.274s1.407,2.707,5.361,2.23Z" transform="translate(-233.595 -63.909)" fill="#eb996e"/>
            <path id="Path_9547" data-name="Path 9547" d="M361.863,83.913a.985.985,0,0,0-.893-.342.9.9,0,0,0-.612.35.57.57,0,0,0-.026.653.662.662,0,0,0,.721.162,2.07,2.07,0,0,0,.688-.436.6.6,0,0,0,.152-.166.183.183,0,0,0-.006-.2" transform="translate(-239.496 -55.554)" fill="#eb996e"/>
            <path id="Path_9548" data-name="Path 9548" d="M360.735,81.917c.089-.008.106.586.625.993s1.149.325,1.155.408c.009.037-.137.119-.4.133a1.477,1.477,0,0,1-.964-.307,1.287,1.287,0,0,1-.486-.834c-.029-.247.033-.4.074-.394" transform="translate(-239.77 -54.46)" fill="#191c26"/>
            <path id="Path_9549" data-name="Path 9549" d="M354.632,63.028c-.05.15-.6.094-1.237.188s-1.153.283-1.242.152c-.04-.063.047-.2.252-.354a2.175,2.175,0,0,1,1.888-.259c.238.089.359.2.338.274" transform="translate(-234.112 -41.648)" fill="#191c26"/>
            <path id="Path_9550" data-name="Path 9550" d="M371.087,59.8c-.093.127-.473.008-.926.014-.453-.01-.834.106-.926-.022-.041-.062.017-.188.181-.31a1.342,1.342,0,0,1,1.492.006c.164.123.22.25.179.312" transform="translate(-245.467 -39.398)" fill="#191c26"/>
            <path id="Path_9551" data-name="Path 9551" d="M335.279,46.042c.623-2.318,3.792-5.628,6.192-5.57l3.924,2.117a3.691,3.691,0,0,1-2.373,2.934c-.666.237-1.477.33-1.852.929s-.1,1.465-.458,2.094c-.491.872-1.939.9-2.294,1.833-.155.409-.043.883-.205,1.289a2.571,2.571,0,0,1-2.089,1.123c-.562-.15-.607-1.095-.811-1.581a2.62,2.62,0,0,1-.16-1.752c.19-1.129-.172-2.308.126-3.414" transform="translate(-222.763 -26.906)" fill="#191c26"/>
            <path id="Path_9552" data-name="Path 9552" d="M337.6,76.322c-.009-.295-.368-.981-.661-1.019-.781-.1-2.181,0-2.142,1.975a2.03,2.03,0,0,0,2.758,2.012c0-.06.074-1.949.045-2.968" transform="translate(-222.577 -50.046)" fill="#ffbe9d"/>
            <path id="Path_9553" data-name="Path 9553" d="M338.068,80.028c-.012-.008-.047.034-.125.072a.471.471,0,0,1-.352.014,1.164,1.164,0,0,1-.56-1.034,1.557,1.557,0,0,1,.118-.676.542.542,0,0,1,.347-.368.24.24,0,0,1,.281.123c.038.075.021.129.036.133s.057-.046.033-.157a.3.3,0,0,0-.11-.167.356.356,0,0,0-.261-.064.662.662,0,0,0-.483.429,1.6,1.6,0,0,0-.148.756,1.222,1.222,0,0,0,.71,1.153.5.5,0,0,0,.429-.08c.082-.068.1-.129.086-.134" transform="translate(-223.939 -51.79)" fill="#eb996e"/>
            <path id="Path_9554" data-name="Path 9554" d="M323.265,52.153h0c-.046-.843-1.135-1.325-1.968-1.462a3.51,3.51,0,0,0-2.4.622,1.728,1.728,0,0,0-.9,1.12c-.065.49.438,1.035.888.832a1.6,1.6,0,1,0,1.725,2.629,3.576,3.576,0,0,1-1.275,2,4.014,4.014,0,0,0,3.922-5.745" transform="translate(-211.371 -33.678)" fill="#191c26"/>
            <path id="Path_9555" data-name="Path 9555" d="M319.8,83.015c.013-.128.349-.187.831-.331a4.694,4.694,0,0,0,2.916-2.279c.256-.433.394-.745.522-.727s.2.381.066.958a3.6,3.6,0,0,1-3.422,2.674c-.593-.007-.928-.18-.913-.3" transform="translate(-212.612 -52.971)" fill="#191c26"/>
            <path id="Path_9556" data-name="Path 9556" d="M328.752,57.986a2.417,2.417,0,0,1-.154-.8,5.944,5.944,0,0,1,1-3.76,2.417,2.417,0,0,1,.531-.62,8.993,8.993,0,0,0-1.174,2.462,9,9,0,0,0-.2,2.72" transform="translate(-218.447 -35.105)" fill="#e1b23c"/>
            <path id="Path_9557" data-name="Path 9557" d="M363.378,44.342c.32,1.08,2.078,2.377,2.865,3.183,1.5,1.537,1.813,2.06,2.038,5.7a7.729,7.729,0,0,0,.857-3.981,5.888,5.888,0,0,0-1.812-3.759,4.585,4.585,0,0,0-3.948-1.145" transform="translate(-241.581 -29.422)" fill="#191c26"/>
            <path id="Path_9558" data-name="Path 9558" d="M391.341,131.417s-1.8,7.492-2.546,10.727c-.788,3.438-2.5,11.239-7.069,10.11-3.479-.859-2.7-5.35-2.7-5.35l2.971-10.314,2.749.311,2.524-6.212,2.72-2.867Z" transform="translate(-251.932 -84.979)" fill="#ffbe9d"/>
            <path id="Path_9559" data-name="Path 9559" d="M382.278,164.978a3.82,3.82,0,0,1-.089-1.669,5.2,5.2,0,0,1,.642-1.7,14.7,14.7,0,0,1,1.329-1.817,14.5,14.5,0,0,0,1.332-1.848,11.143,11.143,0,0,0,.81-1.677,10.1,10.1,0,0,0,.377-1.2,1.869,1.869,0,0,0,.082-.452,2.6,2.6,0,0,0-.153.432c-.092.28-.227.683-.43,1.166a12.338,12.338,0,0,1-.835,1.637,15.653,15.653,0,0,1-1.33,1.819,13.713,13.713,0,0,0-1.333,1.848,5.1,5.1,0,0,0-.624,1.762,3.241,3.241,0,0,0,.051,1.259,2.214,2.214,0,0,0,.111.324c.032.072.051.108.057.106" transform="translate(-253.975 -102.797)" fill="#eb996e"/>
            <path id="Path_9560" data-name="Path 9560" d="M403.121,126.292c0-.132.066-2.313.11-2.885a2.939,2.939,0,0,1,.3-1.034.878.878,0,0,1,1.367-.242l.049.044a3.849,3.849,0,0,1,1.078-1.3c.638-.418,1.166-.7,1.716-.374a.948.948,0,0,1,.528.792s.814-.11,1.166.22,0,1.32,0,1.32.726-.22.9.308a1.461,1.461,0,0,1-.154,1.078s.572.176.638.594-.572.88-.572.88l-1.986,1.58a3.773,3.773,0,0,1-1.533,2.026c-1.381.532-3.609-3.009-3.609-3.009" transform="translate(-268.003 -80.017)" fill="#ffbe9d"/>
            <path id="Path_9561" data-name="Path 9561" d="M405.648,131.017c.021.009.018.084-.041.187a.7.7,0,0,1-.8.31c-.112-.037-.165-.09-.155-.112.019-.046.272.035.546-.072s.409-.334.454-.312" transform="translate(-269.017 -87.102)" fill="#eb996e"/>
            <path id="Path_9562" data-name="Path 9562" d="M411.823,123.684c-.029.039-.219-.093-.254-.353s.111-.439.149-.409,0,.189.028.384.113.342.077.378" transform="translate(-273.615 -81.719)" fill="#eb996e"/>
            <path id="Path_9563" data-name="Path 9563" d="M415.813,127.729c.016.017-.142.2-.441.462a12.4,12.4,0,0,1-1.236.907,1.912,1.912,0,0,1-.79.367.717.717,0,0,1-.684-.249.5.5,0,0,1-.054-.489c.055-.109.123-.134.127-.127s-.036.054-.062.151a.452.452,0,0,0,.089.389.6.6,0,0,0,.56.163,1.919,1.919,0,0,0,.714-.353c.5-.329.944-.627,1.257-.858a3.145,3.145,0,0,1,.52-.363" transform="translate(-274.283 -84.916)" fill="#eb996e"/>
            <path id="Path_9564" data-name="Path 9564" d="M417.482,131.9a12.688,12.688,0,0,1-1.9.963,1.919,1.919,0,0,1-.821.241.648.648,0,0,1-.615-.366.38.38,0,0,1,0-.3.349.349,0,0,1,.143-.165c.109-.06.181-.027.177-.019s-.063.013-.136.076a.286.286,0,0,0-.065.352.525.525,0,0,0,.5.253,1.925,1.925,0,0,0,.746-.239,12.709,12.709,0,0,1,1.969-.8" transform="translate(-275.315 -87.688)" fill="#eb996e"/>
            <path id="Path_9565" data-name="Path 9565" d="M418.572,135.485c.009.02-.107.1-.327.156a1.507,1.507,0,0,1-.394.042,1.067,1.067,0,0,1-.493-.112.3.3,0,0,1-.146-.285.491.491,0,0,1,.109-.244,1.6,1.6,0,0,1,.284-.277c.181-.135.314-.178.325-.158s-.094.1-.242.253a2.245,2.245,0,0,0-.234.279c-.076.112-.1.224,0,.282a1.1,1.1,0,0,0,.406.1,1.977,1.977,0,0,0,.364,0c.208-.019.338-.056.348-.031" transform="translate(-277.37 -89.486)" fill="#eb996e"/>
            <path id="Path_9566" data-name="Path 9566" d="M409.2,134.884a1.625,1.625,0,1,0-2.059,1.5l-.017.452.443.333-.465.26-.021.565.443.334-.465.26-.018.486.27.2-.284.158-.01.283.336.382.672-.4.126-3.362a1.624,1.624,0,0,0,1.05-1.459m-1.579-1.248a.466.466,0,1,1-.483.448.466.466,0,0,1,.483-.448" transform="translate(-269.885 -88.553)" fill="#191c26"/>
            <path id="Path_9567" data-name="Path 9567" d="M409.939,134.5s-.042,0-.113.018a.463.463,0,0,0-.253.161.448.448,0,1,0,.718.027.463.463,0,0,0-.241-.18c-.07-.022-.111-.022-.111-.026a.081.081,0,0,1,.03,0,.371.371,0,0,1,.085.012.465.465,0,0,1,.26.178.481.481,0,0,1-.12.678.481.481,0,0,1-.574-.022.48.48,0,0,1-.069-.685.462.462,0,0,1,.272-.158.362.362,0,0,1,.086-.006.084.084,0,0,1,.03,0" transform="translate(-272.203 -89.414)" fill="#191c26"/>
            <path id="Path_9568" data-name="Path 9568" d="M409.166,134.859s0,.011,0,.033,0,.054-.006.1a1.7,1.7,0,0,1-.082.363,1.636,1.636,0,0,1-.957.98l.008-.011c-.031.868-.072,2.022-.12,3.362v.01L408,139.7l-.672.4-.014.008-.01-.012-.337-.382-.005-.006V139.7c0-.088.007-.185.01-.283V139.4l.01-.005.283-.159,0,.033-.27-.2-.008-.006v-.01c.006-.153.012-.318.018-.486v-.011l.01-.006.465-.26,0,.034-.443-.333-.008-.006v-.01c0-.048,0-.1.006-.15q.008-.209.015-.416V137.4l.01-.005.465-.26,0,.034-.443-.334-.008-.006v-.011c.006-.152.012-.3.017-.451l.014.02a1.66,1.66,0,0,1-.671-.376,1.565,1.565,0,0,1-.246-.286,1.6,1.6,0,0,1-.173-.327,1.637,1.637,0,0,1,2.776-1.653,1.606,1.606,0,0,1,.312.572l.019.062.013.06c.008.039.017.075.021.109.006.068.016.126.015.173s0,.081,0,.106,0,.036,0,.036,0-.012,0-.036,0-.06,0-.106-.012-.1-.019-.171c0-.034-.015-.069-.023-.108l-.013-.06-.02-.061a1.625,1.625,0,0,0-1.021-1.044,1.61,1.61,0,0,0-2.018,2.107,1.619,1.619,0,0,0,.41.6,1.624,1.624,0,0,0,.656.366l.015,0v.015q-.009.224-.017.452l-.008-.017.443.333.024.019-.027.015-.465.26.01-.017c-.005.137-.01.276-.015.415,0,.051,0,.1-.006.15l-.008-.017.443.334.025.019-.027.015-.465.26.01-.017c-.006.167-.013.333-.018.486l-.008-.017.27.2.024.018-.026.015-.284.158.01-.016L407,139.7l0-.014.336.382-.024,0,.672-.4-.009.015c.053-1.339.1-2.493.132-3.361v-.008l.008,0a1.628,1.628,0,0,0,.954-.961,1.8,1.8,0,0,0,.088-.36c0-.041.007-.072.009-.1s0-.032,0-.032" transform="translate(-269.852 -88.528)" fill="#191c26"/>
            <path id="Path_9569" data-name="Path 9569" d="M408.7,134.608a1.625,1.625,0,1,0-2.059,1.5h0l-.017.451.443.334-.465.26-.021.565.443.333-.465.26-.018.486.27.2-.284.158-.01.283.336.382.672-.4.126-3.362a1.625,1.625,0,0,0,1.05-1.459m-1.579-1.248a.466.466,0,1,1-.483.448.466.466,0,0,1,.483-.448" transform="translate(-269.551 -88.37)" fill="#e1b23c"/>
            <path id="Path_9570" data-name="Path 9570" d="M409.435,134.222s-.042,0-.113.018a.464.464,0,0,0-.253.161.449.449,0,1,0,.718.027.463.463,0,0,0-.241-.18c-.07-.022-.111-.022-.111-.027a.082.082,0,0,1,.03,0,.358.358,0,0,1,.085.013.463.463,0,0,1,.26.178.481.481,0,0,1-.12.678.481.481,0,0,1-.574-.022.48.48,0,0,1-.069-.685.462.462,0,0,1,.272-.158.361.361,0,0,1,.086-.006.085.085,0,0,1,.03,0" transform="translate(-271.868 -89.231)" fill="#191c26"/>
            <path id="Path_9571" data-name="Path 9571" d="M408.664,134.583s0,.011,0,.033,0,.054-.006.1a1.71,1.71,0,0,1-.082.364,1.637,1.637,0,0,1-.957.979l.008-.011c-.031.868-.072,2.022-.12,3.362v.01l-.008.005-.672.4-.013.008-.011-.012-.337-.382-.005-.006v-.008c0-.088.007-.185.01-.283v-.011l.01-.005.283-.159,0,.033-.27-.2-.008-.006v-.01c.006-.153.012-.318.018-.486v-.011l.01-.006.465-.26,0,.034-.443-.333-.008-.006v-.01c0-.048,0-.1.006-.15q.008-.209.015-.415v-.011l.01-.005.465-.26,0,.034-.443-.334-.008-.006v-.011c.006-.152.012-.3.017-.451l.015.02a1.66,1.66,0,0,1-.671-.376,1.566,1.566,0,0,1-.246-.286,1.613,1.613,0,0,1-.173-.327,1.637,1.637,0,0,1,2.776-1.653,1.606,1.606,0,0,1,.312.572l.019.062c0,.021.008.041.012.06.008.039.017.075.021.109.006.068.016.126.015.173s0,.081,0,.106,0,.036,0,.036,0-.012,0-.036,0-.06,0-.106-.012-.1-.019-.171c0-.033-.015-.069-.023-.108l-.013-.06-.02-.061a1.6,1.6,0,0,0-.314-.563,1.609,1.609,0,0,0-2.725,1.627,1.558,1.558,0,0,0,.169.319,1.541,1.541,0,0,0,.241.279,1.624,1.624,0,0,0,.656.366l.015,0v.015q-.008.224-.017.452l-.008-.017.443.333.025.019-.027.015-.465.26.01-.017c-.005.137-.01.276-.015.415,0,.051,0,.1-.006.15l-.008-.017.443.334.025.019-.027.015-.465.26.01-.017c-.006.167-.013.333-.018.486l-.008-.017.27.2.025.018-.027.015-.284.158.01-.016-.011.283,0-.014.336.382-.024,0,.672-.4-.009.015c.053-1.339.1-2.493.132-3.361v-.008l.007,0a1.628,1.628,0,0,0,.954-.961,1.8,1.8,0,0,0,.088-.36c0-.041.007-.072.009-.1s0-.032,0-.032" transform="translate(-269.517 -88.344)" fill="#191c26"/>
            <path id="Path_9572" data-name="Path 9572" d="M408.847,135.022a2.245,2.245,0,0,0-.039-.349,1.376,1.376,0,0,0-.145-.383,1.415,1.415,0,0,0-1.676-.664,1.319,1.319,0,0,0-.364.179,1.566,1.566,0,0,0-.165.13,1.583,1.583,0,0,0-.144.158,1.4,1.4,0,0,0-.063,1.666,1.618,1.618,0,0,0,.132.169,1.584,1.584,0,0,0,.155.142,1.329,1.329,0,0,0,.35.206,1.419,1.419,0,0,0,1.72-.537,1.364,1.364,0,0,0,.174-.371,2.266,2.266,0,0,0,.065-.345.1.1,0,0,1,0,.023l0,.068a.67.67,0,0,1-.013.11.989.989,0,0,1-.033.148,1.349,1.349,0,0,1-.17.379,1.441,1.441,0,0,1-1,.649,1.446,1.446,0,0,1-.758-.089,1.357,1.357,0,0,1-.36-.21,1.324,1.324,0,0,1-.3-.319,1.441,1.441,0,0,1,.064-1.713,1.322,1.322,0,0,1,.318-.3,1.368,1.368,0,0,1,.374-.183,1.449,1.449,0,0,1,.763-.032,1.442,1.442,0,0,1,.945.721,1.348,1.348,0,0,1,.141.391,1,1,0,0,1,.021.15.639.639,0,0,1,.005.111c0,.028,0,.051,0,.068a.1.1,0,0,1,0,.023" transform="translate(-269.895 -88.768)" fill="#191c26"/>
            <path id="Path_9573" data-name="Path 9573" d="M409.786,134.539s0-.049-.02-.132a.545.545,0,0,0-.189-.3.531.531,0,0,0-.5-.092.523.523,0,0,0-.251.175.524.524,0,0,0-.023.622.52.52,0,0,0,.237.193.53.53,0,0,0,.5-.054.545.545,0,0,0,.211-.284c.025-.082.025-.131.029-.13a.119.119,0,0,1,0,.035.432.432,0,0,1-.015.1.545.545,0,0,1-.209.3.554.554,0,0,1-.239.1.562.562,0,0,1-.551-.239.561.561,0,0,1,.025-.669.555.555,0,0,1,.271-.186.564.564,0,0,1,.3-.011.55.55,0,0,1,.231.116.543.543,0,0,1,.186.317.433.433,0,0,1,.008.1.115.115,0,0,1,0,.035" transform="translate(-271.695 -89.056)" fill="#191c26"/>
            <path id="Path_9574" data-name="Path 9574" d="M411.016,145.781c-.011,0,.008-.766.044-1.71s.073-1.709.084-1.709-.009.766-.044,1.71-.073,1.709-.084,1.708" transform="translate(-273.25 -94.645)" fill="#191c26"/>
            <path id="Path_9575" data-name="Path 9575" d="M410.417,130.624a.233.233,0,0,1-.218,0v-2.06l.217.015Z" transform="translate(-272.709 -85.472)" fill="#e0e0e0"/>
            <path id="Path_9576" data-name="Path 9576" d="M410.291,130.641a.251.251,0,0,1-.112-.027l-.005,0v-2.074l.235.016v2.058l-.005,0a.252.252,0,0,1-.113.027m-.1-.041a.224.224,0,0,0,.2,0v-2.032l-.2-.014Z" transform="translate(-272.691 -85.454)" fill="#191c26"/>
            <path id="Path_9577" data-name="Path 9577" d="M405.46,125.542a5,5,0,0,0,.582.427.771.771,0,0,1,.353.6.725.725,0,0,1-.429.566,1.357,1.357,0,0,1-1.816-.544" transform="translate(-268.687 -83.463)" fill="#ffbe9d"/>
            <path id="Path_9578" data-name="Path 9578" d="M404.145,126.588a3.421,3.421,0,0,0,.455.407,1.323,1.323,0,0,0,1.355.038.569.569,0,0,0,.341-.583.92.92,0,0,0-.372-.487c-.317-.216-.495-.4-.469-.422s.2.124.541.319a1,1,0,0,1,.461.553.591.591,0,0,1-.07.45.948.948,0,0,1-.342.325,1.422,1.422,0,0,1-.856.173,1.348,1.348,0,0,1-.66-.262c-.326-.251-.4-.507-.384-.511" transform="translate(-268.682 -83.462)" fill="#eb996e"/>
            <path id="Path_9579" data-name="Path 9579" d="M411.891,122.946a8.115,8.115,0,0,0-1,1.474,1.237,1.237,0,0,0-.151.529.526.526,0,0,0,.246.467.534.534,0,0,0,.457,0,1.428,1.428,0,0,0,.383-.274,9.214,9.214,0,0,0,1.248-1.385,1.437,1.437,0,0,0,.222-.393.545.545,0,0,0-.029-.439" transform="translate(-273.067 -81.721)" fill="#ffbe9d"/>
            <path id="Path_9580" data-name="Path 9580" d="M413.1,122.921c.006-.007.086.069.1.25a1.1,1.1,0,0,1-.275.67,8.008,8.008,0,0,1-.664.825c-.135.147-.282.3-.439.446a1.67,1.67,0,0,1-.569.407.632.632,0,0,1-.388.01.512.512,0,0,1-.293-.251.81.81,0,0,1-.013-.671,4.281,4.281,0,0,1,.534-.926,3.924,3.924,0,0,1,.637-.735,7.8,7.8,0,0,1-.533.807,4.752,4.752,0,0,0-.483.908.652.652,0,0,0,.011.533.369.369,0,0,0,.471.156,1.573,1.573,0,0,0,.5-.365c.156-.145.3-.289.439-.431a10.158,10.158,0,0,0,.683-.787,1.13,1.13,0,0,0,.307-.6,1.158,1.158,0,0,0-.026-.249" transform="translate(-272.898 -81.72)" fill="#eb996e"/>
            <path id="Path_9581" data-name="Path 9581" d="M145.482,444.112c0,.048-32.57.087-72.737.087S0,444.16,0,444.112s32.563-.087,72.744-.087,72.737.039,72.737.087" transform="translate(0 -295.197)" fill="#191c26"/>
            <path id="Path_9582" data-name="Path 9582" d="M37.574,269.194c3.19-4.88,3.067-12.012-.743-16.424-1.183-1.37-2.835-2.56-4.638-2.406a4.842,4.842,0,0,0-3.895,3.507,11.478,11.478,0,0,0-.037,5.5,13.705,13.705,0,0,0,3.007,7.06c1.77,1.9,4.03,4.005,6.306,2.761" transform="translate(-18.577 -166.438)" fill="#e1b23c"/>
            <path id="Path_9583" data-name="Path 9583" d="M39.816,357.978a7.291,7.291,0,0,0-2.033-8.281,3.065,3.065,0,0,0-2.607-.819,2.532,2.532,0,0,0-1.689,2.16,6,6,0,0,0,.479,2.838,7.168,7.168,0,0,0,2.189,3.365c1.084.816,2.6,1.584,3.661.737" transform="translate(-22.241 -231.898)" fill="#e1b23c"/>
            <path id="Path_9584" data-name="Path 9584" d="M75.016,347.674a10.553,10.553,0,0,1,5.319-11.136,4.437,4.437,0,0,1,3.936-.393,3.665,3.665,0,0,1,1.757,3.558,8.688,8.688,0,0,1-1.515,3.88,10.372,10.372,0,0,1-4.092,4.124c-1.776.838-4.152,1.479-5.405-.033" transform="translate(-49.748 -223.268)" fill="#e1b23c"/>
            <path id="Path_9585" data-name="Path 9585" d="M72.862,306.763c-1.527-4.929,1.062-10.9,5.378-13.733a5.186,5.186,0,0,1,4.533-.918,4.285,4.285,0,0,1,2.461,3.932,10.161,10.161,0,0,1-1.307,4.691,12.129,12.129,0,0,1-4.277,5.277c-1.968,1.183-5.154,2.364-6.788.751" transform="translate(-48.147 -194.054)" fill="#e1b23c"/>
            <path id="Path_9586" data-name="Path 9586" d="M64.578,367.425a1.085,1.085,0,0,0,.05-.239l.1-.687q.032-.228.069-.5l.113-.586c.08-.42.163-.9.3-1.422l.2-.822.258-.879c.164-.612.407-1.244.635-1.919a33.6,33.6,0,0,1,4.367-8.137c.436-.562.829-1.115,1.248-1.59l.591-.7.575-.62c.358-.4.713-.738,1.019-1.037l.426-.418.376-.332.516-.466a1.067,1.067,0,0,0,.171-.173,1.062,1.062,0,0,0-.2.141l-.543.436-.389.32-.439.407c-.315.292-.678.621-1.045,1.02l-.588.614-.6.7c-.427.473-.828,1.024-1.271,1.587a32.178,32.178,0,0,0-4.393,8.185c-.224.68-.462,1.319-.62,1.936l-.248.888-.187.829c-.129.526-.2,1.011-.272,1.435l-.1.591-.051.5c-.026.283-.047.512-.064.693a1.06,1.06,0,0,0-.008.243" transform="translate(-42.931 -230.626)" fill="#191c26"/>
            <path id="Path_9587" data-name="Path 9587" d="M63.993,341.06a.349.349,0,0,0,0-.1c-.006-.077-.013-.171-.021-.286q-.037-.4-.1-1.1-.035-.359-.078-.79c-.022-.29-.03-.605-.048-.944-.025-.677-.09-1.447-.066-2.3q0-.641.006-1.339c.005-.465.049-.948.072-1.449.034-1,.17-2.066.291-3.187a45.641,45.641,0,0,1,4.152-14c.51-1.005.975-1.971,1.494-2.83.253-.433.48-.861.729-1.254l.724-1.126c.445-.728.919-1.338,1.309-1.892.2-.274.378-.534.554-.765l.5-.62.682-.863.173-.228a.336.336,0,0,0,.054-.082s-.026.021-.07.068l-.189.215-.713.839-.511.61c-.181.228-.365.485-.569.756-.4.549-.884,1.155-1.339,1.881l-.738,1.122c-.254.392-.485.82-.742,1.253-.527.859-1,1.825-1.517,2.833a44.6,44.6,0,0,0-4.17,14.061c-.116,1.126-.246,2.194-.273,3.2-.02.5-.06.987-.06,1.455s0,.915.007,1.343c-.014.856.061,1.628.1,2.306.023.339.037.655.065.945l.1.79q.089.691.14,1.092l.042.283a.336.336,0,0,0,.021.1" transform="translate(-42.233 -203.376)" fill="#191c26"/>
            <path id="Path_9588" data-name="Path 9588" d="M40.143,267.972a.353.353,0,0,0,.041.091l.137.256.545.973c.117.212.257.441.393.7l.427.858.492.985c.166.353.324.733.5,1.129s.363.808.539,1.246l.53,1.374.279.724.257.759.534,1.584c.676,2.187,1.317,4.622,1.858,7.207.524,2.59.891,5.082,1.163,7.356.233,2.277.4,4.334.451,6.065.044.865.053,1.648.056,2.336s.014,1.281,0,1.765-.012.844-.015,1.116c0,.117,0,.212,0,.29a.346.346,0,0,0,.008.1.376.376,0,0,0,.014-.1c.005-.077.012-.173.019-.29q.02-.408.055-1.115c.029-.485.038-1.078.038-1.767s.01-1.474-.025-2.341c-.028-1.736-.185-3.8-.408-6.081-.261-2.28-.624-4.779-1.149-7.376-.542-2.593-1.191-5.034-1.879-7.224l-.544-1.586-.262-.76-.285-.725-.542-1.374c-.181-.438-.378-.848-.553-1.245s-.344-.775-.516-1.126l-.508-.981-.443-.852c-.141-.259-.287-.487-.41-.7l-.58-.955-.155-.245a.345.345,0,0,0-.059-.08" transform="translate(-26.688 -178.153)" fill="#191c26"/>
            <path id="Path_9589" data-name="Path 9589" d="M43.377,357.3a4.311,4.311,0,0,0,.339.6c.233.373.554.924.929,1.614s.791,1.529,1.209,2.48a30.682,30.682,0,0,1,1.99,6.441c.191,1.021.325,1.947.4,2.729s.126,1.417.143,1.857a4.346,4.346,0,0,0,.055.683,4.243,4.243,0,0,0,.025-.685c.008-.441-.016-1.08-.077-1.868a27.638,27.638,0,0,0-.358-2.752,30.853,30.853,0,0,0-.808-3.3,30.679,30.679,0,0,0-1.2-3.181,27.5,27.5,0,0,0-1.255-2.474c-.394-.684-.735-1.226-.99-1.586a4.283,4.283,0,0,0-.408-.551" transform="translate(-28.838 -237.539)" fill="#191c26"/>
            <path id="Path_9590" data-name="Path 9590" d="M55.484,401.584H41.471l1.7,14.312H53.739Z" transform="translate(-27.571 -266.981)" fill="#242937"/>
            <path id="Path_9591" data-name="Path 9591" d="M55.907,439.676l-1.19,1.545H44.1l-1.224-1.5Z" transform="translate(-28.506 -292.305)" fill="#191c26"/>
            <path id="Path_9592" data-name="Path 9592" d="M43.1,413.936c0,.058,2.908.1,6.494.1s6.5-.047,6.5-.1-2.907-.1-6.5-.1-6.494.047-6.494.1" transform="translate(-28.654 -275.123)" fill="#fafafa"/>
            <path id="Path_9593" data-name="Path 9593" d="M43.1,416.779c0,.058,2.908.1,6.494.1s6.5-.047,6.5-.1-2.907-.1-6.5-.1-6.494.047-6.494.1" transform="translate(-28.654 -277.013)" fill="#fafafa"/>
            <path id="Path_9594" data-name="Path 9594" d="M43.621,419.531c0,.058,2.806.1,6.267.1s6.268-.047,6.268-.1-2.805-.1-6.268-.1-6.267.047-6.267.1" transform="translate(-29 -278.843)" fill="#fafafa"/>
            <path id="Path_9595" data-name="Path 9595" d="M76.884,309.555a.479.479,0,0,0,0,.137c.009.1.019.233.032.388.036.358.085.84.144,1.426.128,1.2.314,2.865.529,4.7.008.07.016.14.024.205l.007.062h.062c1.8.028,3.421.045,4.591.051h1.384l.376-.007a.447.447,0,0,0,.131-.012.481.481,0,0,0-.131-.016l-.375-.019-1.383-.044c-1.17-.031-2.79-.065-4.59-.094l.069.063c-.008-.065-.016-.135-.024-.2-.215-1.834-.417-3.493-.57-4.693l-.189-1.421c-.023-.154-.043-.281-.059-.385a.5.5,0,0,0-.03-.133" transform="translate(-51.112 -205.799)" fill="#191c26"/>
            <path id="Path_9596" data-name="Path 9596" d="M86.368,296.786a.514.514,0,0,0-.011.14c0,.108,0,.241,0,.4,0,.37.008.869.013,1.477.018,1.247.052,2.969.1,4.872,0,.077,0,.153.005.225l0,.075.074-.006a43.685,43.685,0,0,1,4.712-.106c.6.018,1.086.043,1.42.061l.386.018a.068.068,0,1,0,0-.028c-.087-.012-.217-.028-.384-.045-.334-.035-.819-.074-1.421-.106a37.169,37.169,0,0,0-4.727.064l.076.069c0-.071,0-.148-.005-.225-.047-1.9-.1-3.624-.14-4.87-.024-.607-.044-1.106-.059-1.476-.009-.161-.017-.293-.023-.4a.546.546,0,0,0-.018-.14" transform="translate(-57.41 -197.309)" fill="#191c26"/>
            <path id="Path_9597" data-name="Path 9597" d="M95.137,292.436a2.51,2.51,0,0,0-.087.411l-.208,1.127c-.182.951-.465,2.262-.866,3.7l-.042.151.142-.068.168-.081a12.054,12.054,0,0,1,3.735-1.092c.5-.061.9-.084,1.183-.094a2.97,2.97,0,0,0,.437-.024.336.336,0,0,0-.113-.016c-.074,0-.183-.014-.324-.016a10.05,10.05,0,0,0-1.194.05,11.357,11.357,0,0,0-3.786,1.065l-.17.082.1.082a35.965,35.965,0,0,0,.827-3.718c.079-.479.133-.867.164-1.136a2.375,2.375,0,0,0,.034-.419" transform="translate(-62.449 -194.417)" fill="#191c26"/>
            <path id="Path_9598" data-name="Path 9598" d="M38.485,364.447c0,.021.406-.02,1.06-.046a17.8,17.8,0,0,1,2.548.083c.2.021.4.046.586.072l.067.009.012-.066c.151-.847.278-1.594.363-2.13a5.835,5.835,0,0,0,.11-.864,5.917,5.917,0,0,0-.2.848c-.11.532-.254,1.275-.41,2.122l.079-.057c-.19-.027-.388-.053-.591-.074a14.279,14.279,0,0,0-2.569-.042c-.328.025-.592.059-.774.086a1.078,1.078,0,0,0-.28.06" transform="translate(-25.586 -240.336)" fill="#191c26"/>
            <path id="Path_9599" data-name="Path 9599" d="M34.536,355.947c.005.022.392-.069,1.027-.147a11.164,11.164,0,0,1,2.487-.025c.151.015.3.035.439.055l.073.01.007-.072c.088-.871.16-1.643.205-2.2a6.081,6.081,0,0,0,.046-.894,6,6,0,0,0-.139.884c-.07.552-.159,1.322-.251,2.193l.08-.062c-.142-.02-.292-.041-.445-.056a9.669,9.669,0,0,0-2.515.067c-.318.052-.573.111-.747.157a1.035,1.035,0,0,0-.266.09" transform="translate(-22.96 -234.466)" fill="#191c26"/>
            <path id="Path_9600" data-name="Path 9600" d="M31.7,280.719a.641.641,0,0,0,.139.072l.409.182,1.515.646,5.02,2.079.271.111.064.026.027-.063,2.121-4.79.624-1.448.163-.4a.607.607,0,0,0,.048-.142.637.637,0,0,0-.074.13l-.187.385-.665,1.43-2.16,4.772.092-.037-.271-.111-5.036-2.041-1.532-.6-.42-.158a.664.664,0,0,0-.15-.046" transform="translate(-21.077 -184.153)" fill="#191c26"/>
            <path id="Path_9601" data-name="Path 9601" d="M28.041,262.892a.646.646,0,0,0,.123.091l.367.237,1.368.853,4.564,2.783.073.045.03-.081.083-.22,1.913-5.161.564-1.57.146-.429a.663.663,0,0,0,.042-.153.681.681,0,0,0-.069.143l-.172.42-.607,1.554-1.952,5.147-.082.22.1-.037-4.587-2.746-1.391-.814-.381-.215a.647.647,0,0,0-.138-.067" transform="translate(-18.642 -172.379)" fill="#191c26"/>
            <path id="Path_9602" data-name="Path 9602" d="M29.241,253.622a1.953,1.953,0,0,0,.3.178c.2.109.482.269.828.484a14.764,14.764,0,0,1,2.54,1.987l.176.172-.059-.24c-.062-.251-.118-.515-.162-.787a9.133,9.133,0,0,1,.2-3.734,10.664,10.664,0,0,1,.359-1.086,2.63,2.63,0,0,0,.15-.395,2.234,2.234,0,0,0-.2.373,8.236,8.236,0,0,0-.4,1.081,8.738,8.738,0,0,0-.242,3.784c.044.276.1.545.166.8l.117-.068a13.387,13.387,0,0,0-2.59-1.967c-.354-.205-.647-.354-.852-.449a1.7,1.7,0,0,0-.324-.133" transform="translate(-19.44 -166.339)" fill="#191c26"/>
            <path id="Path_9603" data-name="Path 9603" d="M76.943,354.148a2.006,2.006,0,0,0,.064.362c.049.231.119.567.2.984a24.177,24.177,0,0,1,.376,3.319l0,.064.064,0,.314.019c1.39.084,2.648.152,3.559.194l1.08.043a2.159,2.159,0,0,0,.4,0,2.074,2.074,0,0,0-.394-.052l-1.077-.088c-.91-.068-2.167-.151-3.556-.235l-.314-.019.066.067a20.426,20.426,0,0,0-.422-3.332c-.09-.417-.174-.751-.239-.978a1.816,1.816,0,0,0-.116-.35" transform="translate(-51.152 -235.445)" fill="#191c26"/>
            <path id="Path_9604" data-name="Path 9604" d="M85.155,342.37a1.942,1.942,0,0,0,.023.365c.03.26.068.594.113,1,.1.843.253,2.014.43,3.326l.008.057.058,0,.451.029c1.424.1,2.708.244,3.635.364l1.1.147a2.266,2.266,0,0,0,.405.041,2.211,2.211,0,0,0-.4-.1c-.257-.051-.63-.119-1.093-.192-.926-.146-2.212-.31-3.64-.407l-.452-.029.066.061c-.18-1.312-.347-2.48-.474-3.32-.063-.4-.116-.732-.157-.99a1.906,1.906,0,0,0-.075-.358" transform="translate(-56.61 -227.615)" fill="#191c26"/>
            <path id="Path_9605" data-name="Path 9605" d="M94.827,337.3c-.02.005.065.385.165,1.01a18.107,18.107,0,0,1,.226,2.48v.079l.079-.01.235-.03a21.816,21.816,0,0,1,2.647-.157l.805.009a1.229,1.229,0,0,0,.3-.008,1.178,1.178,0,0,0-.294-.047c-.19-.02-.465-.042-.807-.054a17.011,17.011,0,0,0-2.666.116l-.237.031.08.069a14.518,14.518,0,0,0-.271-2.494c-.063-.312-.124-.562-.172-.732a1.032,1.032,0,0,0-.089-.261" transform="translate(-63.041 -224.243)" fill="#191c26"/>
            <path id="Path_9606" data-name="Path 9606" d="M39.747,349.074a45.051,45.051,0,0,0,1.3,2.821,10.548,10.548,0,0,0-1.3-2.821" transform="translate(-26.423 -232.071)" fill="#191c26"/>
            <path id="Path_9607" data-name="Path 9607" d="M34.5,354.585a14.6,14.6,0,0,1,1.593.323,14.525,14.525,0,0,1,1.5.635,4.437,4.437,0,0,0-3.089-.958" transform="translate(-22.935 -235.716)" fill="#191c26"/>
          </g>
        </g>
      </g>
    </g>
    <rect id="Rectangle_4995" data-name="Rectangle 4995" width="236" height="177" transform="translate(902 601)" fill="none"/>
  </g>
</svg>
